<?xml version="1.0" encoding="UTF-8"?>
<svg version="1.1" xmlns="http://www.w3.org/2000/svg" width="336" height="152">
<path d="M0 0 C110.88 0 221.76 0 336 0 C336 50.16 336 100.32 336 152 C225.12 152 114.24 152 0 152 C0 101.84 0 51.68 0 0 Z " fill="#F7E7F1" transform="translate(0,0)"/>
<path d="M0 0 C0.66 0 1.32 0 2 0 C2.28875 0.639375 2.5775 1.27875 2.875 1.9375 C3.82823451 4.15206079 3.82823451 4.15206079 6 5 C6.495 6.485 6.495 6.485 7 8 C7.33 6.35 7.66 4.7 8 3 C9.32 3 10.64 3 12 3 C12 4.32 12 5.64 12 7 C13.98 6.01 15.96 5.02 18 4 C17.67 6.64 17.34 9.28 17 12 C18.32 11.34 19.64 10.68 21 10 C21.02578125 10.61488281 21.0515625 11.22976562 21.078125 11.86328125 C21.24929081 14.302394 21.46654175 16.61234413 22 19 C22.66 19.495 23.32 19.99 24 20.5 C26 22 26 22 26.484375 24.16796875 C26.72468071 26.44733907 26.90399419 28.71026132 27 31 C28.485 31.495 28.485 31.495 30 32 C29.93489583 33.98567708 29.86979167 35.97135417 29.8046875 37.95703125 C29.86745538 40.31359719 29.86745538 40.31359719 32 43 C32.16015625 45.48828125 32.16015625 45.48828125 32.0625 48.3125 C32.0035757 51.32156757 31.99419406 53.96589009 32.5 56.9375 C33.3095117 61.89575914 33.44213263 66.9941594 33 72 C32.34 72.66 31.68 73.32 31 74 C30.60959686 76.6908592 30.60959686 76.6908592 30.5 79.75 C30.27708548 84.185999 29.5483741 87.82937944 28 92 C28.56396484 92.01981934 29.12792969 92.03963867 29.70898438 92.06005859 C32.30639574 92.15631811 34.90311103 92.26558052 37.5 92.375 C38.386875 92.4059375 39.27375 92.436875 40.1875 92.46875 C54.08173077 93.08173077 54.08173077 93.08173077 57 96 C57.1875 99.4375 57.1875 99.4375 57 103 C56.34 103.66 55.68 104.32 55 105 C54.34 110.28 53.68 115.56 53 121 C22.31 121 -8.38 121 -40 121 C-41.485 114.07 -41.485 114.07 -43 107 C-43.99 105.35 -44.98 103.7 -46 102 C-45.6875 99.1875 -45.6875 99.1875 -45 97 C-36.43472814 94.81974898 -27.76886148 93.94635244 -19 93 C-19 91.35 -19 89.7 -19 88 C-19.66 88 -20.32 88 -21 88 C-22.44796872 79.26047454 -23.29211698 70.86088167 -23 62 C-22.34 62 -21.68 62 -21 62 C-21.144375 60.90300781 -21.28875 59.80601563 -21.4375 58.67578125 C-21.62516526 57.22137548 -21.81265606 55.76694719 -22 54.3125 C-22.09539062 53.59126953 -22.19078125 52.87003906 -22.2890625 52.12695312 C-23.59716236 41.89574353 -23.59716236 41.89574353 -21 38 C-20.7436283 35.98107288 -20.48942347 33.96155912 -20.27734375 31.9375 C-19.94668547 29.6275492 -19.31309964 27.93102888 -18 26 C-17.34 25.67 -16.68 25.34 -16 25 C-15.26924352 22.6859378 -14.59861742 20.35171131 -14 18 C-13.34 18 -12.68 18 -12 18 C-12.95865509 15.66924071 -12.95865509 15.66924071 -16 14 C-13.03 14.495 -13.03 14.495 -10 15 C-10.495 12.03 -10.495 12.03 -11 9 C-10.34 9 -9.68 9 -9 9 C-9 9.99 -9 10.98 -9 12 C-6.38952199 10.694761 -6.31933577 9.64173426 -5.375 6.9375 C-5.11460937 6.20402344 -4.85421875 5.47054687 -4.5859375 4.71484375 C-4.39257812 4.14894531 -4.19921875 3.58304688 -4 3 C-3.34 3 -2.68 3 -2 3 C-2 4.65 -2 6.3 -2 8 C-1.01 8 -0.02 8 1 8 C0.505 4.04 0.505 4.04 0 0 Z " fill="#8CA7A4" transform="translate(156,31)"/>
<path d="M0 0 C0 0.66 0 1.32 0 2 C2.64 2.33 5.28 2.66 8 3 C8.2475 3.763125 8.495 4.52625 8.75 5.3125 C9.7470519 8.10842097 9.7470519 8.10842097 12.0625 9.25 C14.90723105 11.8194345 14.66212424 14.43527039 14.921875 18.13671875 C14.94765625 18.75160156 14.9734375 19.36648437 15 20 C15.99 20.33 16.98 20.66 18 21 C17.93489583 22.98567708 17.86979167 24.97135417 17.8046875 26.95703125 C17.86745538 29.31359719 17.86745538 29.31359719 20 32 C20.16015625 34.48828125 20.16015625 34.48828125 20.0625 37.3125 C20.0035757 40.32156757 19.99419406 42.96589009 20.5 45.9375 C21.3095117 50.89575914 21.44213263 55.9941594 21 61 C20.34 61.66 19.68 62.32 19 63 C18.57354771 65.8595077 18.57354771 65.8595077 18.4375 69.0625 C18.09722222 74.90277778 18.09722222 74.90277778 17 76 C16.62911153 77.61684194 16.30256403 79.24399077 16 80.875 C15.47337663 83.69737213 14.9099394 86.27018179 14 89 C6.34841858 90.05539054 -1.27822535 90.36063233 -9 90 C-9.33 89.67 -9.66 89.34 -10 89 C-12.05396726 89.40929986 -12.05396726 89.40929986 -14 90 C-13.979375 89.030625 -13.95875 88.06125 -13.9375 87.0625 C-13.64381501 84.12534105 -13.64381501 84.12534105 -15 83 C-15.21105966 79.41198575 -15.21081417 76.59291486 -14 73.1875 C-12.81634902 69.41461251 -12.90648186 66.23832307 -13 62.31640625 C-13 60 -13 60 -12.4375 57.375 C-11.77688256 53.78879101 -12.45157802 50.59521073 -13 47 C-12.34 47 -11.68 47 -11 47 C-11 45.68 -11 44.36 -11 43 C-11.66 43 -12.32 43 -13 43 C-13 40.03 -13 37.06 -13 34 C-11.515 33.505 -11.515 33.505 -10 33 C-10.515625 32.195625 -11.03125 31.39125 -11.5625 30.5625 C-13.19511439 26.51645564 -12.98833847 24.43719868 -12.31640625 20.25 C-11.89655214 17.72831579 -11.89655214 17.72831579 -12.125 14.0625 C-12.08375 13.051875 -12.0425 12.04125 -12 11 C-11.01 10.34 -10.02 9.68 -9 9 C-8.63702064 7.02252878 -8.63702064 7.02252878 -8.8125 4.875 C-8.874375 3.59625 -8.93625 2.3175 -9 1 C-5.846632 0.29925156 -3.27275026 0 0 0 Z " fill="#1F3C40" transform="translate(168,42)"/>
<path d="M0 0 C3.16730012 0.11130798 6.33356026 0.2415826 9.5 0.375 C10.386875 0.4059375 11.27375 0.436875 12.1875 0.46875 C26.08173077 1.08173077 26.08173077 1.08173077 29 4 C29.1875 7.4375 29.1875 7.4375 29 11 C28.34 11.66 27.68 12.32 27 13 C26.34 18.28 25.68 23.56 25 29 C-5.36 29 -35.72 29 -67 29 C-67 26.36 -67 23.72 -67 21 C-67.33 20.01 -67.66 19.02 -68 18 C-67.34 17.34 -66.68 16.68 -66 16 C-64.20154186 16.44961454 -62.40547989 16.91052149 -60.62109375 17.41308594 C-55.01758399 18.66782117 -49.21776722 18.77054492 -43.5 19.125 C-42.200625 19.21136719 -40.90125 19.29773438 -39.5625 19.38671875 C-36.3753652 19.59763208 -33.18795059 19.80186798 -30 20 C-29.505 22.475 -29.505 22.475 -29 25 C-27.68 24.67 -26.36 24.34 -25 24 C-24.67 22.68 -24.34 21.36 -24 20 C-24.62567871 19.98018066 -25.25135742 19.96036133 -25.89599609 19.93994141 C-28.72276519 19.84485774 -31.54877815 19.73511254 -34.375 19.625 C-35.35984375 19.5940625 -36.3446875 19.563125 -37.359375 19.53125 C-38.77089844 19.47324219 -38.77089844 19.47324219 -40.2109375 19.4140625 C-41.08024902 19.3826416 -41.94956055 19.3512207 -42.84521484 19.31884766 C-45 19 -45 19 -47 17 C-38.09 16.67 -29.18 16.34 -20 16 C-20 14.02 -20 12.04 -20 10 C-21.98 10 -23.96 10 -26 10 C-26.495 8.515 -26.495 8.515 -27 7 C-26.34 7 -25.68 7 -25 7 C-25 7.66 -25 8.32 -25 9 C-17.41 8.67 -9.82 8.34 -2 8 C-1.67 6.02 -1.34 4.04 -1 2 C-0.67 1.34 -0.34 0.68 0 0 Z " fill="#DD7B41" transform="translate(184,123)"/>
<path d="M0 0 C0 0.66 0 1.32 0 2 C2.64 2.33 5.28 2.66 8 3 C8.2475 3.763125 8.495 4.52625 8.75 5.3125 C9.7470519 8.10842097 9.7470519 8.10842097 12.0625 9.25 C14.90723105 11.8194345 14.66212424 14.43527039 14.921875 18.13671875 C14.94765625 18.75160156 14.9734375 19.36648437 15 20 C15.99 20.33 16.98 20.66 18 21 C17.93489583 22.98567708 17.86979167 24.97135417 17.8046875 26.95703125 C17.86745538 29.31359719 17.86745538 29.31359719 20 32 C20.16015625 34.48828125 20.16015625 34.48828125 20.0625 37.3125 C20.0035757 40.32156757 19.99419406 42.96589009 20.5 45.9375 C21.3095117 50.89575914 21.44213263 55.9941594 21 61 C20.34 61.66 19.68 62.32 19 63 C18.61000342 65.72483419 18.61000342 65.72483419 18.5 68.8125 C18.29243723 72.98970076 17.74831032 76.18614563 16 80 C14.68 79.67 13.36 79.34 12 79 C12.33 80.32 12.66 81.64 13 83 C9 83 9 83 6 82 C6.33 80.68 6.66 79.36 7 78 C7.99 78 8.98 78 10 78 C10.33 76.68 10.66 75.36 11 74 C11 74.66 11 75.32 11 76 C11.99 76 12.98 76 14 76 C12.33045181 72.77595022 12.33045181 72.77595022 9.375 72.3125 C8.59125 72.209375 7.8075 72.10625 7 72 C7 71.34 7 70.68 7 70 C5.515 70.495 5.515 70.495 4 71 C3.01 70.67 2.02 70.34 1 70 C1 68.68 1 67.36 1 66 C-0.98 66.495 -0.98 66.495 -3 67 C-6 63.25 -6 63.25 -6 61 C-6.66 60.67 -7.32 60.34 -8 60 C-6.02 60.33 -4.04 60.66 -2 61 C-1.67 58.36 -1.34 55.72 -1 53 C0.41377341 55.63904371 1.37240135 58.07120629 2 61 C2.66 61 3.32 61 4 61 C4.12117187 60.43539062 4.24234375 59.87078125 4.3671875 59.2890625 C5.04850805 56.8245326 6.04607571 54.69129201 7.125 52.375 C9.35916434 46.97443008 9.10709556 42.65581427 8 37 C8.66 37 9.32 37 10 37 C10 34.69 10 32.38 10 30 C10.99 29.67 11.98 29.34 13 29 C13 27.68 13 26.36 13 25 C11.35 24.34 9.7 23.68 8 23 C8 21.35 8 19.7 8 18 C7.01 17.67 6.02 17.34 5 17 C4.71125 16.195625 4.4225 15.39125 4.125 14.5625 C3.22055781 11.76071559 3.22055781 11.76071559 0.375 10.6875 C-0.800625 10.3471875 -0.800625 10.3471875 -2 10 C-2.33 7.69 -2.66 5.38 -3 3 C-5.97 2.505 -5.97 2.505 -9 2 C-9 1.67 -9 1.34 -9 1 C-5.846632 0.29925156 -3.27275026 0 0 0 Z " fill="#204B51" transform="translate(168,42)"/>
<path d="M0 0 C0.99 0 1.98 0 3 0 C2.69835937 0.86367188 2.39671875 1.72734375 2.0859375 2.6171875 C1.07126633 5.77799769 0.31618056 8.88051715 -0.375 12.125 C-1.31682412 16.38950314 -2.46623475 20.31609506 -4.0625 24.375 C-6.49814521 31.29297328 -6.84500379 38.3737749 -7.31665039 45.64013672 C-7.67070455 50.95863612 -8.27729823 55.96459581 -9.59326172 61.13598633 C-10.10659464 63.17052647 -10.10659464 63.17052647 -10 66 C-10.66 66 -11.32 66 -12 66 C-12.33 67.32 -12.66 68.64 -13 70 C-15.375 70.625 -15.375 70.625 -18 71 C-21.02153065 67.97846935 -20.96666651 65.06267172 -21.09765625 60.88671875 C-21.08605469 59.83097656 -21.07445312 58.77523437 -21.0625 57.6875 C-21.05347656 56.61886719 -21.04445312 55.55023438 -21.03515625 54.44921875 C-21.02355469 53.64097656 -21.01195312 52.83273438 -21 52 C-20.34 52 -19.68 52 -19 52 C-19.144375 50.90300781 -19.28875 49.80601563 -19.4375 48.67578125 C-19.62516526 47.22137548 -19.81265606 45.76694719 -20 44.3125 C-20.09539062 43.59126953 -20.19078125 42.87003906 -20.2890625 42.12695312 C-21.59716236 31.89574353 -21.59716236 31.89574353 -19 28 C-18.74358927 25.98076547 -18.48900072 23.96108288 -18.26953125 21.9375 C-17.93992761 19.5681753 -17.45559743 17.91525978 -16 16 C-15.35160156 15.896875 -14.70320312 15.79375 -14.03515625 15.6875 C-11.79603142 15.19581509 -11.79603142 15.19581509 -10.953125 12.93359375 C-10.60507813 11.69802734 -10.60507813 11.69802734 -10.25 10.4375 C-10.00765625 9.61121094 -9.7653125 8.78492188 -9.515625 7.93359375 C-9.34546875 7.29550781 -9.1753125 6.65742187 -9 6 C-8.01 6 -7.02 6 -6 6 C-6 5.01 -6 4.02 -6 3 C-4.02 3 -2.04 3 0 3 C0 2.01 0 1.02 0 0 Z " fill="#5E98A3" transform="translate(154,41)"/>
<path d="M0 0 C-0.33 0.99 -0.66 1.98 -1 3 C8.07134186 4.10508363 17.15285502 4.31727755 26.27929688 4.55224609 C28.25399914 4.60433771 30.22856591 4.66148779 32.203125 4.71875 C33.36489258 4.74904297 34.52666016 4.77933594 35.72363281 4.81054688 C38.88185172 4.99316818 41.89293579 5.41794095 45 6 C45.38133299 7.9914056 45.71325582 9.99279077 46 12 C44.25493385 13.74506615 41.80960857 13.23282784 39.43359375 13.31640625 C38.30888672 13.35830078 37.18417969 13.40019531 36.02539062 13.44335938 C34.84138672 13.48267578 33.65738281 13.52199219 32.4375 13.5625 C31.24962891 13.60568359 30.06175781 13.64886719 28.83789062 13.69335938 C25.89205216 13.79983546 22.9461257 13.90184841 20 14 C21.89685547 14.09087891 21.89685547 14.09087891 23.83203125 14.18359375 C25.49219871 14.26800904 27.15235437 14.35265655 28.8125 14.4375 C29.64587891 14.47681641 30.47925781 14.51613281 31.33789062 14.55664062 C32.54155273 14.61948242 32.54155273 14.61948242 33.76953125 14.68359375 C34.87711792 14.73858032 34.87711792 14.73858032 36.00708008 14.79467773 C38 15 38 15 41 16 C40.505 18.475 40.505 18.475 40 21 C38.68 21 37.36 21 36 21 C35.67 19.35 35.34 17.7 35 16 C33.88625 16.02320313 32.7725 16.04640625 31.625 16.0703125 C22.31485128 16.2016871 13.37807129 15.76620847 4.16015625 14.4375 C1.03643992 13.93143271 1.03643992 13.93143271 -2 14 C-1.79375 15.0725 -1.5875 16.145 -1.375 17.25 C-0.99516946 21.04830539 -1.19397748 21.8842665 -3 25 C-3.18175781 24.04738281 -3.36351563 23.09476563 -3.55078125 22.11328125 C-3.92783203 20.23189453 -3.92783203 20.23189453 -4.3125 18.3125 C-4.55613281 17.07113281 -4.79976563 15.82976562 -5.05078125 14.55078125 C-5.95269652 11.17695007 -7.17105885 8.92940573 -9 6 C-8.8125 3.25 -8.8125 3.25 -8 1 C-5.29120665 -0.35439668 -2.99066732 -0.06501451 0 0 Z " fill="#FDB77E" transform="translate(119,127)"/>
<path d="M0 0 C2.3125 0.25 2.3125 0.25 5 1 C6.0260734 2.31337396 7.02727325 3.64664105 8 5 C10.09415804 5.79623822 10.09415804 5.79623822 12 6 C12 7.32 12 8.64 12 10 C12.86625 9.938125 13.7325 9.87625 14.625 9.8125 C18.52934909 10.02940828 20.71377356 10.90876499 24 13 C25.375 15.1875 25.375 15.1875 26 17 C25.01 17 24.02 17 23 17 C22.67 16.67 22.34 16.34 22 16 C21.67 16.66 21.34 17.32 21 18 C20.01 18.33 19.02 18.66 18 19 C18 19.99 18 20.98 18 22 C18.66 22.33 19.32 22.66 20 23 C20.33 22.34 20.66 21.68 21 21 C21.66 21.33 22.32 21.66 23 22 C23 21.01 23 20.02 23 19 C24.32 19.33 25.64 19.66 27 20 C26.34 22.97 25.68 25.94 25 29 C17.34841858 30.05539054 9.72177465 30.36063233 2 30 C1.67 29.67 1.34 29.34 1 29 C-1.05396726 29.40929986 -1.05396726 29.40929986 -3 30 C-2.67 27.36 -2.34 24.72 -2 22 C-1.34 22.33 -0.68 22.66 0 23 C-0.33 21.02 -0.66 19.04 -1 17 C1.31 18.98 3.62 20.96 6 23 C5.1028125 21.88625 5.1028125 21.88625 4.1875 20.75 C2.4209675 18.52921629 0.70261747 16.27015663 -1 14 C4.94 14.99 4.94 14.99 11 16 C7.7 15.01 4.4 14.02 1 13 C1 12.34 1 11.68 1 11 C2.98 10.67 4.96 10.34 7 10 C6.4946875 9.44570312 5.989375 8.89140625 5.46875 8.3203125 C4.8190625 7.59585938 4.169375 6.87140625 3.5 6.125 C2.8503125 5.40570313 2.200625 4.68640625 1.53125 3.9453125 C0 2 0 2 0 0 Z " fill="#213C3F" transform="translate(157,102)"/>
<path d="M0 0 C3.16730012 0.11130798 6.33356026 0.2415826 9.5 0.375 C10.386875 0.4059375 11.27375 0.436875 12.1875 0.46875 C26.08173077 1.08173077 26.08173077 1.08173077 29 4 C29.1875 7.4375 29.1875 7.4375 29 11 C26.64046906 13.35953094 25.22104383 13.49141413 22 14 C21.67 14.99 21.34 15.98 21 17 C16.65507229 18.13896163 12.61379215 17.93100471 8.1875 17.5625 C7.49462891 17.51029297 6.80175781 17.45808594 6.08789062 17.40429688 C4.39145563 17.27560181 2.69565137 17.13863816 1 17 C0.67 15.35 0.34 13.7 0 12 C1.65 11.01 3.3 10.02 5 9 C2.69 8.67 0.38 8.34 -2 8 C-1.125 2.25 -1.125 2.25 0 0 Z " fill="#BF5022" transform="translate(184,123)"/>
<path d="M0 0 C2.42578125 0.83984375 2.42578125 0.83984375 5 2 C6.1875 4.5625 6.1875 4.5625 7 7 C7.66 7.33 8.32 7.66 9 8 C9.12375 8.804375 9.2475 9.60875 9.375 10.4375 C9.72567164 13.15983399 9.72567164 13.15983399 12.0625 14.3125 C12.701875 14.539375 13.34125 14.76625 14 15 C14 16.32 14 17.64 14 19 C13.34 19.33 12.68 19.66 12 20 C11.59270772 22.32156597 11.25561323 24.6568787 11 27 C10.34 27 9.68 27 9 27 C9.495 28.0828125 9.495 28.0828125 10 29.1875 C11.71691803 34.01633195 11.09497218 37.41077737 9.125 42.0625 C8.77695313 42.89910156 8.42890625 43.73570313 8.0703125 44.59765625 C7.71710938 45.39042969 7.36390625 46.18320313 7 47 C6.68804687 47.74121094 6.37609375 48.48242188 6.0546875 49.24609375 C5 51 5 51 2 52 C0.29085988 45.8672031 -0.04390775 41.09828088 0.703125 34.79296875 C1.1542337 30.54898555 1.29809544 26.26101124 1 22 C0.67 21.67 0.34 21.34 0 21 C-0.08685603 19.43827255 -0.10702219 17.87270656 -0.09765625 16.30859375 C-0.09443359 15.36435547 -0.09121094 14.42011719 -0.08789062 13.44726562 C-0.07951172 12.45404297 -0.07113281 11.46082031 -0.0625 10.4375 C-0.05798828 9.44041016 -0.05347656 8.44332031 -0.04882812 7.41601562 C-0.03700007 4.94395151 -0.02051849 2.47200482 0 0 Z " fill="#0E6D82" transform="translate(167,52)"/>
<path d="M0 0 C0 0.66 0 1.32 0 2 C2.64 2.33 5.28 2.66 8 3 C8.2475 3.763125 8.495 4.52625 8.75 5.3125 C9.7470519 8.10842097 9.7470519 8.10842097 12.0625 9.25 C14.90723105 11.8194345 14.66212424 14.43527039 14.921875 18.13671875 C14.94765625 18.75160156 14.9734375 19.36648437 15 20 C15.99 20.33 16.98 20.66 18 21 C17.93489583 22.98567708 17.86979167 24.97135417 17.8046875 26.95703125 C17.86745538 29.31359719 17.86745538 29.31359719 20 32 C20.1953125 35.35546875 20.1953125 35.35546875 20.125 39.1875 C20.10695312 40.45980469 20.08890625 41.73210937 20.0703125 43.04296875 C20.04710937 44.01878906 20.02390625 44.99460938 20 46 C15.545 44.02 15.545 44.02 11 42 C10.67 42.99 10.34 43.98 10 45 C9.34 42.36 8.68 39.72 8 37 C8.66 37 9.32 37 10 37 C10 34.69 10 32.38 10 30 C10.99 29.67 11.98 29.34 13 29 C13 27.68 13 26.36 13 25 C11.35 24.34 9.7 23.68 8 23 C8 21.35 8 19.7 8 18 C7.01 17.67 6.02 17.34 5 17 C4.71125 16.195625 4.4225 15.39125 4.125 14.5625 C3.22055781 11.76071559 3.22055781 11.76071559 0.375 10.6875 C-0.800625 10.3471875 -0.800625 10.3471875 -2 10 C-2.33 7.69 -2.66 5.38 -3 3 C-5.97 2.505 -5.97 2.505 -9 2 C-9 1.67 -9 1.34 -9 1 C-5.846632 0.29925156 -3.27275026 0 0 0 Z " fill="#5C5845" transform="translate(168,42)"/>
<path d="M0 0 C1.45184478 4.53701494 2.23509196 8.18061476 2 13 C2.598125 12.401875 3.19625 11.80375 3.8125 11.1875 C5.54166667 9.45833333 7.27083333 7.72916667 9 6 C9.144375 7.051875 9.28875 8.10375 9.4375 9.1875 C9.76496738 11.40700113 10.13831033 13.62239651 10.625 15.8125 C11 18 11 18 10 20 C5.87506128 20.05875981 1.75023232 20.09384938 -2.375 20.125 C-3.53128906 20.14175781 -4.68757813 20.15851563 -5.87890625 20.17578125 C-12.84367123 20.2151302 -19.24033792 19.7135811 -26 18 C-25.24462891 16.05175781 -25.24462891 16.05175781 -24 14 C-22.21240234 13.36230469 -22.21240234 13.36230469 -20.0859375 13.171875 C-19.32539062 13.09453125 -18.56484375 13.0171875 -17.78125 12.9375 C-16.9871875 12.875625 -16.193125 12.81375 -15.375 12.75 C-14.57320312 12.67265625 -13.77140625 12.5953125 -12.9453125 12.515625 C-10.96506289 12.3270298 -8.98265715 12.1613297 -7 12 C-7.06058594 10.7315625 -7.12117188 9.463125 -7.18359375 8.15625 C-7.28686523 5.99414062 -7.28686523 5.99414062 -7 4 C-2.3 0 -2.3 0 0 0 Z " fill="#879E99" transform="translate(144,112)"/>
<path d="M0 0 C0.99 0 1.98 0 3 0 C2.69964844 0.85851563 2.39929688 1.71703125 2.08984375 2.6015625 C1.04912331 5.84681979 0.27617525 9.04451551 -0.4375 12.375 C-2.06489748 19.55517584 -4.08955162 25.70927869 -8 32 C-8.69822617 33.65369357 -9.37498605 35.31727014 -10 37 C-13 36 -13 36 -14.25 33.875 C-15.18889571 30.27589978 -14.76434212 27.61325368 -14 24 C-13.67 23.67 -13.34 23.34 -13 23 C-12.84084321 21.46148441 -12.72293375 19.91862239 -12.625 18.375 C-12.2114474 13.65643259 -11.10945353 10.21890705 -9 6 C-8.01 6 -7.02 6 -6 6 C-6 5.01 -6 4.02 -6 3 C-4.02 3 -2.04 3 0 3 C0 2.01 0 1.02 0 0 Z " fill="#0F766E" transform="translate(154,41)"/>
<path d="M0 0 C2.31 0 4.62 0 7 0 C7 2.64 7 5.28 7 8 C5.35 8.33 3.7 8.66 2 9 C2 10.65 2 12.3 2 14 C2.99 14.33 3.98 14.66 5 15 C4.01 15.495 4.01 15.495 3 16 C4.32 16.66 5.64 17.32 7 18 C6.67 22.29 6.34 26.58 6 31 C4.35 31 2.7 31 1 31 C0.92572162 34.34252724 0.93453047 36.8035914 2 40 C0.125 41.0625 0.125 41.0625 -2 42 C-2.66 41.67 -3.32 41.34 -4 41 C-4 38.03 -4 35.06 -4 32 C-3.01 31.67 -2.02 31.34 -1 31 C-1.515625 30.195625 -2.03125 29.39125 -2.5625 28.5625 C-4.19511439 24.51645564 -3.98833847 22.43719868 -3.31640625 18.25 C-2.89655214 15.72831579 -2.89655214 15.72831579 -3.125 12.0625 C-3.08375 11.051875 -3.0425 10.04125 -3 9 C-2.01 8.34 -1.02 7.68 0 7 C0.25015873 3.41642759 0.25015873 3.41642759 0 0 Z " fill="#233332" transform="translate(159,44)"/>
<path d="M0 0 C3.04172719 -0.0271045 6.08320997 -0.04688964 9.125 -0.0625 C9.9809375 -0.07087891 10.836875 -0.07925781 11.71875 -0.08789062 C16.26678411 -0.10538306 20.52383164 0.06807642 25 1 C25.38133299 2.9914056 25.71325582 4.99279077 26 7 C24.25493385 8.74506615 21.80960857 8.23282784 19.43359375 8.31640625 C18.30888672 8.35830078 17.18417969 8.40019531 16.02539062 8.44335938 C14.84138672 8.48267578 13.65738281 8.52199219 12.4375 8.5625 C11.24962891 8.60568359 10.06175781 8.64886719 8.83789062 8.69335938 C5.89205216 8.79983546 2.9461257 8.90184841 0 9 C1.89685547 9.09087891 1.89685547 9.09087891 3.83203125 9.18359375 C5.49219871 9.26800904 7.15235437 9.35265655 8.8125 9.4375 C9.64587891 9.47681641 10.47925781 9.51613281 11.33789062 9.55664062 C12.54155273 9.61948242 12.54155273 9.61948242 13.76953125 9.68359375 C14.87711792 9.73858032 14.87711792 9.73858032 16.00708008 9.79467773 C18 10 18 10 21 11 C20.67 12.65 20.34 14.3 20 16 C18.68 16 17.36 16 16 16 C15.505 13.525 15.505 13.525 15 11 C13.329375 11.03480469 13.329375 11.03480469 11.625 11.0703125 C-17.02014206 11.48404057 -17.02014206 11.48404057 -23 6 C-12.6374817 5.81384698 -2.33938394 6.39434571 8 7 C7.67 5.35 7.34 3.7 7 2 C4.69 1.67 2.38 1.34 0 1 C0 0.67 0 0.34 0 0 Z " fill="#F79B5B" transform="translate(139,132)"/>
<path d="M0 0 C0.78840468 2.77377219 1.11128001 5.19450453 1.0625 8.07421875 C1.05476562 8.82380859 1.04703125 9.57339844 1.0390625 10.34570312 C1.02617187 11.11849609 1.01328125 11.89128906 1 12.6875 C0.9543669 15.464274 0.95276414 18.22194121 1 21 C1.33 21.33 1.66 21.66 2 22 C2.33820214 27.28192161 2.40771185 32.88104781 1 38 C0.01 38.66 -0.98 39.32 -2 40 C-2 39.34 -2 38.68 -2 38 C-2.66 38 -3.32 38 -4 38 C-4.33 38.99 -4.66 39.98 -5 41 C-6.65 39.68 -8.3 38.36 -10 37 C-9.625 35.0625 -9.625 35.0625 -9 33 C-8.01 32.505 -8.01 32.505 -7 32 C-7.185625 31.443125 -7.37125 30.88625 -7.5625 30.3125 C-8.07551165 27.600867 -7.6640724 25.65628961 -7 23 C-5.35 23 -3.7 23 -2 23 C-2 18.71 -2 14.42 -2 10 C-3.32 9.34 -4.64 8.68 -6 8 C-6 5.66666667 -6 3.33333333 -6 1 C-4 0 -4 0 0 0 Z " fill="#1B3033" transform="translate(167,52)"/>
<path d="M0 0 C0.66 0 1.32 0 2 0 C2.28875 0.639375 2.5775 1.27875 2.875 1.9375 C3.82823451 4.15206079 3.82823451 4.15206079 6 5 C6.33 5.99 6.66 6.98 7 8 C7.33 6.35 7.66 4.7 8 3 C9.32 3 10.64 3 12 3 C12 4.32 12 5.64 12 7 C13.98 6.01 15.96 5.02 18 4 C17.67 6.64 17.34 9.28 17 12 C18.32 11.34 19.64 10.68 21 10 C21 12.64 21 15.28 21 18 C20.505 16.02 20.505 16.02 20 14 C17.36 13.67 14.72 13.34 12 13 C12 12.34 12 11.68 12 11 C11.484375 11.165 10.96875 11.33 10.4375 11.5 C7.26636124 12.15049 4.22781666 12.0620734 1 12 C1 11.34 1 10.68 1 10 C0.01 10 -0.98 10 -2 10 C-2 10.99 -2 11.98 -2 13 C-3.98 13 -5.96 13 -8 13 C-8 13.99 -8 14.98 -8 16 C-8.99 16 -9.98 16 -11 16 C-11.1546875 17.3921875 -11.1546875 17.3921875 -11.3125 18.8125 C-12.0070192 22.03254358 -12.47740939 23.02579865 -15 25 C-14.67 22.69 -14.34 20.38 -14 18 C-13.34 18 -12.68 18 -12 18 C-12.95865509 15.66924071 -12.95865509 15.66924071 -16 14 C-13.03 14.495 -13.03 14.495 -10 15 C-10.33 13.02 -10.66 11.04 -11 9 C-10.34 9 -9.68 9 -9 9 C-9 9.99 -9 10.98 -9 12 C-6.38952199 10.694761 -6.31933577 9.64173426 -5.375 6.9375 C-5.11460937 6.20402344 -4.85421875 5.47054687 -4.5859375 4.71484375 C-4.39257812 4.14894531 -4.19921875 3.58304688 -4 3 C-3.34 3 -2.68 3 -2 3 C-2 4.65 -2 6.3 -2 8 C-1.01 8 -0.02 8 1 8 C0.67 5.36 0.34 2.72 0 0 Z " fill="#E7B99B" transform="translate(156,31)"/>
<path d="M0 0 C0.66 0 1.32 0 2 0 C2 0.66 2 1.32 2 2 C2.81339844 1.9278125 3.62679687 1.855625 4.46484375 1.78125 C14.00030061 1.00897453 23.43946632 0.89582954 33 1 C31.73577236 3.52845528 30.47154472 3.76422764 28 5 C27.67 5.66 27.34 6.32 27 7 C27.66 7.33 28.32 7.66 29 8 C25.84685215 10.10209857 25.13896919 10.2434761 21.55078125 10.1953125 C20.27944336 10.18564453 20.27944336 10.18564453 18.98242188 10.17578125 C18.10134766 10.15902344 17.22027344 10.14226562 16.3125 10.125 C15.41982422 10.11597656 14.52714844 10.10695312 13.60742188 10.09765625 C11.40467686 10.07409748 9.20247412 10.04120329 7 10 C7 7.69 7 5.38 7 3 C5.02 3 3.04 3 1 3 C0.67 2.01 0.34 1.02 0 0 Z " fill="#DE7332" transform="translate(157,130)"/>
<path d="M0 0 C0.99 0 1.98 0 3 0 C3.79953138 3.28696233 4.09658936 4.71023192 3 8 C3.66 8.33 4.32 8.66 5 9 C3.35 9.33 1.7 9.66 0 10 C0.09539062 10.73605469 0.19078125 11.47210938 0.2890625 12.23046875 C0.39992187 13.20628906 0.51078125 14.18210937 0.625 15.1875 C0.74101562 16.15042969 0.85703125 17.11335938 0.9765625 18.10546875 C1.00194942 21.24075323 0.34359283 23.19486535 -1 26 C-0.34 26.33 0.32 26.66 1 27 C1.625 29.5625 1.625 29.5625 2 32 C-1 34 -1 34 -4.1875 33.625 C-5.115625 33.41875 -6.04375 33.2125 -7 33 C-7.33 32.01 -7.66 31.02 -8 30 C-7.67 29.67 -7.34 29.34 -7 29 C-6.78879112 27.23992602 -6.57916292 25.4796552 -6.375 23.71875 C-5.89654339 20.24993961 -5.28137152 16.81357789 -4.625 13.375 C-4.39039063 12.12460937 -4.15578125 10.87421875 -3.9140625 9.5859375 C-3.01301261 6.05104946 -1.7546906 3.18589075 0 0 Z " fill="#90B3AE" transform="translate(156,43)"/>
<path d="M0 0 C0 0.66 0 1.32 0 2 C2.64 2.33 5.28 2.66 8 3 C8.2475 3.763125 8.495 4.52625 8.75 5.3125 C9.7550688 8.10422927 9.7550688 8.10422927 12.0625 9.3125 C14.40568257 11.35333643 14.38628223 12.18287491 14.75 15.1875 C14.87375 17.0746875 14.87375 17.0746875 15 19 C14.34 19.33 13.68 19.66 13 20 C13 19.34 13 18.68 13 18 C10.69 18 8.38 18 6 18 C5.608125 17.05125 5.21625 16.1025 4.8125 15.125 C2.80206144 11.65872662 1.77300358 11.0197307 -2 10 C-2.33 7.69 -2.66 5.38 -3 3 C-5.97 2.505 -5.97 2.505 -9 2 C-9 1.67 -9 1.34 -9 1 C-5.846632 0.29925156 -3.27275026 0 0 0 Z " fill="#4F7D61" transform="translate(168,42)"/>
<path d="M0 0 C2.42578125 0.83984375 2.42578125 0.83984375 5 2 C6.1875 4.5625 6.1875 4.5625 7 7 C7.66 7.33 8.32 7.66 9 8 C9.12375 8.804375 9.2475 9.60875 9.375 10.4375 C9.72567164 13.15983399 9.72567164 13.15983399 12.0625 14.3125 C12.701875 14.539375 13.34125 14.76625 14 15 C14 16.32 14 17.64 14 19 C13.34 19.33 12.68 19.66 12 20 C11.34 20.99 10.68 21.98 10 23 C8.02 22.67 6.04 22.34 4 22 C4 21.34 4 20.68 4 20 C3.01 19.67 2.02 19.34 1 19 C1.020625 17.906875 1.04125 16.81375 1.0625 15.6875 C1.07194435 10.42699641 0.53820772 5.22830356 0 0 Z " fill="#1F736F" transform="translate(167,52)"/>
<path d="M0 0 C0.33 0 0.66 0 1 0 C1.18013718 5.6743211 0.85650285 10.55605144 -0.5625 16.0546875 C-1.10970948 18.15549829 -1.10970948 18.15549829 -1 21 C-1.66 21 -2.32 21 -3 21 C-3.33 22.32 -3.66 23.64 -4 25 C-6.375 25.625 -6.375 25.625 -9 26 C-12.02153065 22.97846935 -11.96666651 20.06267172 -12.09765625 15.88671875 C-12.08605469 14.83097656 -12.07445312 13.77523437 -12.0625 12.6875 C-12.05347656 11.61886719 -12.04445312 10.55023438 -12.03515625 9.44921875 C-12.02355469 8.64097656 -12.01195312 7.83273438 -12 7 C-11.67 7.99 -11.34 8.98 -11 10 C-9.02 10 -7.04 10 -5 10 C-4.67 10.66 -4.34 11.32 -4 12 C-1.24331998 8.04476345 -0.4682121 4.77576339 0 0 Z " fill="#789EA0" transform="translate(145,86)"/>
<path d="M0 0 C0.66 0.99 1.32 1.98 2 3 C1.67 3.99 1.34 4.98 1 6 C1.99 5.67 2.98 5.34 4 5 C4 5.66 4 6.32 4 7 C4.99 7 5.98 7 7 7 C7 9.64 7 12.28 7 15 C7.66 15 8.32 15 9 15 C9 16.32 9 17.64 9 19 C8.34 19 7.68 19 7 19 C7.16757813 19.77085938 7.33515625 20.54171875 7.5078125 21.3359375 C7.71148437 22.33882812 7.91515625 23.34171875 8.125 24.375 C8.33382812 25.37273437 8.54265625 26.37046875 8.7578125 27.3984375 C8.83773437 28.25695312 8.91765625 29.11546875 9 30 C8.34 30.66 7.68 31.32 7 32 C7 30.68 7 29.36 7 28 C5.68 28 4.36 28 3 28 C3.03480469 27.31292969 3.06960937 26.62585938 3.10546875 25.91796875 C3.14607422 24.56638672 3.14607422 24.56638672 3.1875 23.1875 C3.22230469 22.29417969 3.25710937 21.40085937 3.29296875 20.48046875 C3.21141792 17.59213225 3.21141792 17.59213225 0 15 C0 17.97 0 20.94 0 24 C-0.66 24 -1.32 24 -2 24 C-2.99944097 21.00167709 -3.02441809 19.67702844 -2.6953125 16.62109375 C-2.60636719 15.78255859 -2.51742187 14.94402344 -2.42578125 14.08007812 C-2.32652344 13.20802734 -2.22726563 12.33597656 -2.125 11.4375 C-2.03347656 10.56158203 -1.94195312 9.68566406 -1.84765625 8.78320312 C-1.13585283 2.27170567 -1.13585283 2.27170567 0 0 Z " fill="#8DB0B4" transform="translate(148,70)"/>
<path d="M0 0 C0.66 0.33 1.32 0.66 2 1 C2 4.3 2 7.6 2 11 C-5.34278418 11.18827652 -11.86347522 10.73381947 -19 9 C-18.5390625 7.078125 -18.5390625 7.078125 -17 5 C-14.17084573 4.16743378 -11.30681923 3.97845345 -8.375 3.75 C-7.57320312 3.67265625 -6.77140625 3.5953125 -5.9453125 3.515625 C-3.96506289 3.3270298 -1.98265715 3.1613297 0 3 C0 2.01 0 1.02 0 0 Z " fill="#C18966" transform="translate(137,121)"/>
<path d="M0 0 C0.66 0 1.32 0 2 0 C2 0.66 2 1.32 2 2 C3.423125 2.2165625 3.423125 2.2165625 4.875 2.4375 C8 3 8 3 10 4 C9.34 9.61 8.68 15.22 8 21 C7.01 21 6.02 21 5 21 C3.25 18.8125 3.25 18.8125 2 16 C2.3125 13.1875 2.3125 13.1875 3 11 C2.34 11 1.68 11 1 11 C1 9.68 1 8.36 1 7 C0.34 7 -0.32 7 -1 7 C-1.625 5.1875 -1.625 5.1875 -2 3 C-1.34 2.01 -0.68 1.02 0 0 Z " fill="#343E37" transform="translate(178,96)"/>
<path d="M0 0 C2.31 0 4.62 0 7 0 C7 2.64 7 5.28 7 8 C5.35 8.33 3.7 8.66 2 9 C2 10.65 2 12.3 2 14 C2.99 14.33 3.98 14.66 5 15 C4.01 15.495 4.01 15.495 3 16 C4.32 16.66 5.64 17.32 7 18 C5.02 18.99 5.02 18.99 3 20 C3.33 20.66 3.66 21.32 4 22 C1.625 21.8125 1.625 21.8125 -1 21 C-3.35945297 17.17993328 -3.41512553 13.40033064 -3 9 C-2.01 8.34 -1.02 7.68 0 7 C0.25015873 3.41642759 0.25015873 3.41642759 0 0 Z " fill="#414A38" transform="translate(159,44)"/>
<path d="M0 0 C0 1.65 0 3.3 0 5 C-0.969375 5.268125 -1.93875 5.53625 -2.9375 5.8125 C-3.948125 6.204375 -4.95875 6.59625 -6 7 C-6.33 7.99 -6.66 8.98 -7 10 C-10.98196457 11.05404945 -13.98195309 10.84098656 -18 10 C-17.01 9.34 -16.02 8.68 -15 8 C-15.33 6.35 -15.66 4.7 -16 3 C-14.27318563 2.49193553 -12.54342021 1.99389533 -10.8125 1.5 C-9.84957031 1.2215625 -8.88664063 0.943125 -7.89453125 0.65625 C-5.14654124 0.03322392 -2.80401584 -0.12302812 0 0 Z " fill="#AE4825" transform="translate(212,130)"/>
<path d="M0 0 C0.99 0.33 1.98 0.66 3 1 C3.92844389 5.33273814 3.92844389 8.66726186 3 13 C4.32 13 5.64 13 7 13 C6.67 14.65 6.34 16.3 6 18 C5.01 18.33 4.02 18.66 3 19 C2.34 18.67 1.68 18.34 1 18 C1 18.99 1 19.98 1 21 C0.01 21 -0.98 21 -2 21 C-2.02721176 19.10424749 -2.04649136 17.20838021 -2.0625 15.3125 C-2.07410156 14.25675781 -2.08570313 13.20101562 -2.09765625 12.11328125 C-1.96579607 7.90957877 -1.05113508 4.05437817 0 0 Z " fill="#A1B5B0" transform="translate(148,85)"/>
<path d="M0 0 C0.33 0 0.66 0 1 0 C1 1.65 1 3.3 1 5 C3.97 5.495 3.97 5.495 7 6 C7.12375 5.195625 7.2475 4.39125 7.375 3.5625 C7.58125 2.716875 7.7875 1.87125 8 1 C8.66 0.67 9.32 0.34 10 0 C10.20675522 3.85253895 9.62527747 6.519874 8.125 10.0625 C7.77695313 10.89910156 7.42890625 11.73570313 7.0703125 12.59765625 C6.71710938 13.39042969 6.36390625 14.18320313 6 15 C5.68804687 15.74121094 5.37609375 16.48242188 5.0546875 17.24609375 C4 19 4 19 1 20 C-0.96290189 12.95664616 -0.99939172 7.22533204 0 0 Z " fill="#095A6C" transform="translate(168,84)"/>
<path d="M0 0 C1.32 0.33 2.64 0.66 4 1 C3.34 3.97 2.68 6.94 2 10 C-5.68931285 11.06059488 -13.24506486 11.09928082 -21 11 C-21 10.67 -21 10.34 -21 10 C-19.205625 9.87625 -19.205625 9.87625 -17.375 9.75 C-12.14328042 9.1099492 -8.69708245 6.69708245 -5 3 C-4.34 3.33 -3.68 3.66 -3 4 C-2.67 3.34 -2.34 2.68 -2 2 C-1.34 2.33 -0.68 2.66 0 3 C0 2.01 0 1.02 0 0 Z " fill="#36352D" transform="translate(180,121)"/>
<path d="M0 0 C0.2475 0.61875 0.495 1.2375 0.75 1.875 C2.20628639 4.35068687 3.37812506 4.95125002 6 6 C6.33 5.01 6.66 4.02 7 3 C8.29539465 5.13359119 9.03274515 6.47607754 8.875 9 C7.73609632 11.60320841 6.05923392 13.06556814 4 15 C3.01 16.485 3.01 16.485 2 18 C1.34 18 0.68 18 0 18 C-1.69832609 12.16200408 -2.25287193 7.06892629 -2 1 C-1.34 0.67 -0.68 0.34 0 0 Z " fill="#A0B0A7" transform="translate(146,107)"/>
<path d="M0 0 C0.66 0 1.32 0 2 0 C2.25046041 7.51381215 2.25046041 7.51381215 0.9375 10.0625 C-0.56775237 13.1733549 0.30548808 15.70106838 1 19 C1.97549761 21.81862203 1.97549761 21.81862203 3 24 C3.66 24 4.32 24 5 24 C4.67 25.98 4.34 27.96 4 30 C3.67 29.34 3.34 28.68 3 28 C2.67 28.66 2.34 29.32 2 30 C0.68 30 -0.64 30 -2 30 C-2 28.68 -2 27.36 -2 26 C-2.99 25.67 -3.98 25.34 -5 25 C-4.34 25 -3.68 25 -3 25 C-3.03480469 24.03578125 -3.06960937 23.0715625 -3.10546875 22.078125 C-3.13253906 20.81484375 -3.15960938 19.5515625 -3.1875 18.25 C-3.22230469 16.99703125 -3.25710937 15.7440625 -3.29296875 14.453125 C-2.97932698 10.75633399 -2.30322871 9.74544863 0 7 C-0.31506627 3.85778033 -0.31506627 3.85778033 -1 1 C-0.67 0.67 -0.34 0.34 0 0 Z " fill="#388690" transform="translate(140,56)"/>
<path d="M0 0 C0.78840468 2.77377219 1.11128001 5.19450453 1.0625 8.07421875 C1.05476562 8.82380859 1.04703125 9.57339844 1.0390625 10.34570312 C1.02617187 11.11849609 1.01328125 11.89128906 1 12.6875 C0.9543669 15.464274 0.95276414 18.22194121 1 21 C1.33 21.33 1.66 21.66 2 22 C2.34568689 27.39881588 2.11582647 32.69982429 1 38 C0.67 38 0.34 38 0 38 C-0.83779436 28.29056184 -1.12276617 18.73944972 -1 9 C-2.65 9 -4.3 9 -6 9 C-6 6.33333333 -6 3.66666667 -6 1 C-4 0 -4 0 0 0 Z " fill="#115456" transform="translate(167,52)"/>
<path d="M0 0 C0.33 0.66 0.66 1.32 1 2 C1.33 1.34 1.66 0.68 2 0 C2.556875 0.185625 3.11375 0.37125 3.6875 0.5625 C5.97567057 1.15747604 5.97567057 1.15747604 8.125 0.5 C12.47407777 -0.25636135 16.64567753 0.45042532 21 1 C21 1.99 21 2.98 21 4 C13.57359158 5.60881575 6.59498961 6.26442904 -1 6 C-0.67 4.02 -0.34 2.04 0 0 Z " fill="#8A4127" transform="translate(183,125)"/>
<path d="M0 0 C3.16730012 0.11130798 6.33356026 0.2415826 9.5 0.375 C10.386875 0.4059375 11.27375 0.436875 12.1875 0.46875 C26.08173077 1.08173077 26.08173077 1.08173077 29 4 C29.04092937 6.33297433 29.04241723 8.66705225 29 11 C28.67 9.68 28.34 8.36 28 7 C18.595 7.495 18.595 7.495 9 8 C9 7.67 9 7.34 9 7 C14.445 6.01 14.445 6.01 20 5 C20 4.67 20 4.34 20 4 C18.86111328 3.90912109 18.86111328 3.90912109 17.69921875 3.81640625 C16.70535156 3.73261719 15.71148437 3.64882812 14.6875 3.5625 C13.70136719 3.48128906 12.71523437 3.40007812 11.69921875 3.31640625 C9 3 9 3 6 2 C5.67 2.66 5.34 3.32 5 4 C3.33333333 4 1.66666667 4 0 4 C0 2.68 0 1.36 0 0 Z " fill="#C9724C" transform="translate(184,123)"/>
<path d="M0 0 C3.63094642 2.64960955 5.89851796 5.01824456 8 9 C5.69 9 3.38 9 1 9 C1 9.66 1 10.32 1 11 C2.06541016 11.18175781 2.06541016 11.18175781 3.15234375 11.3671875 C4.53099609 11.61855469 4.53099609 11.61855469 5.9375 11.875 C6.85402344 12.03742188 7.77054688 12.19984375 8.71484375 12.3671875 C9.84599609 12.68042969 9.84599609 12.68042969 11 13 C11.33 13.66 11.66 14.32 12 15 C6.06 14.01 6.06 14.01 0 13 C2.64 15.64 5.28 18.28 8 21 C7.67 21.66 7.34 22.32 7 23 C4.69 20.69 2.38 18.38 0 16 C0.33 18.31 0.66 20.62 1 23 C-1.475 22.01 -1.475 22.01 -4 21 C-4.19294408 16.17639811 -3.75747614 12.50353262 -2 8 C-0.02 7.67 1.96 7.34 4 7 C3.01 5.824375 3.01 5.824375 2 4.625 C0 2 0 2 0 0 Z " fill="#4C584F" transform="translate(157,104)"/>
<path d="M0 0 C1.65 0 3.3 0 5 0 C4.48446121 6.49850211 3.53332291 12.66226532 2 19 C1.67 18.34 1.34 17.68 1 17 C-0.32 17 -1.64 17 -3 17 C-4.36111111 10.68939394 -4.36111111 10.68939394 -2.625 7.375 C-2.08875 6.59125 -1.5525 5.8075 -1 5 C-0.29329272 2.30745009 -0.29329272 2.30745009 0 0 Z " fill="#2F5F3F" transform="translate(149,45)"/>
<path d="M0 0 C0 1.65 0 3.3 0 5 C1.32 5 2.64 5 4 5 C4 6.98 4 8.96 4 11 C4.66 11 5.32 11 6 11 C6 12.65 6 14.3 6 16 C3.36 16 0.72 16 -2 16 C-2.06058594 15.33613281 -2.12117187 14.67226562 -2.18359375 13.98828125 C-2.79863507 7.45091919 -2.79863507 7.45091919 -4 1 C-2 0 -2 0 0 0 Z " fill="#628786" transform="translate(141,116)"/>
<path d="M0 0 C1.09506492 3.28519475 1.09960608 5.73663415 1.0625 9.1875 C1.05347656 10.27417969 1.04445312 11.36085938 1.03515625 12.48046875 C1.02355469 13.31191406 1.01195312 14.14335938 1 15 C0.67 14.01 0.34 13.02 0 12 C-1.87387216 11.19787372 -1.87387216 11.19787372 -4.0625 10.8125 C-4.79597656 10.65394531 -5.52945313 10.49539062 -6.28515625 10.33203125 C-6.85105469 10.22246094 -7.41695312 10.11289063 -8 10 C-8 9.34 -8 8.68 -8 8 C-8.99 7.67 -9.98 7.34 -11 7 C-10.34 5.02 -9.68 3.04 -9 1 C-8.071875 1.20625 -7.14375 1.4125 -6.1875 1.625 C-2.84826598 2.36692966 -2.84826598 2.36692966 0 0 Z " fill="#524C43" transform="translate(188,88)"/>
<path d="M0 0 C0 1.32 0 2.64 0 4 C2.97 4.495 2.97 4.495 6 5 C4.375 6.5625 4.375 6.5625 2 8 C-1.25 7.6875 -1.25 7.6875 -4 7 C-4 7.66 -4 8.32 -4 9 C-3.34 9.33 -2.68 9.66 -2 10 C-2.66 10 -3.32 10 -4 10 C-4 11.65 -4 13.3 -4 15 C-4.268125 14.443125 -4.53625 13.88625 -4.8125 13.3125 C-5.97909214 10.91668533 -5.97909214 10.91668533 -7.6875 8.5625 C-9 6 -9 6 -8.8125 3.25 C-7.26439273 -1.03706629 -4.0282315 -0.08757025 0 0 Z " fill="#F8B887" transform="translate(119,127)"/>
<path d="M0 0 C1.1055189 0.93590504 2.20935453 1.87379858 3.3125 2.8125 C3.92738281 3.33457031 4.54226562 3.85664062 5.17578125 4.39453125 C6.07876953 5.18923828 6.07876953 5.18923828 7 6 C7.57105469 6.49886719 8.14210937 6.99773437 8.73046875 7.51171875 C10 9 10 9 10 12 C8.14375 11.9690625 8.14375 11.9690625 6.25 11.9375 C3.3359175 11.93233319 0.79046673 12.06984442 -2 13 C-1.67 10.36 -1.34 7.72 -1 5 C-0.34 5.33 0.32 5.66 1 6 C0.67 4.02 0.34 2.04 0 0 Z " fill="#1D2E2F" transform="translate(156,119)"/>
<path d="M0 0 C1.98 0.99 3.96 1.98 6 3 C6 4.32 6 5.64 6 7 C5.01 7.495 5.01 7.495 4 8 C3.01 9.485 3.01 9.485 2 11 C-0.97 10.505 -0.97 10.505 -4 10 C-4 9.34 -4 8.68 -4 8 C-4.66 8 -5.32 8 -6 8 C-6 7.01 -6 6.02 -6 5 C-5.34 5 -4.68 5 -4 5 C-3.67 4.01 -3.34 3.02 -3 2 C-2.01 2 -1.02 2 0 2 C0 1.34 0 0.68 0 0 Z " fill="#337A7A" transform="translate(175,64)"/>
<path d="M0 0 C1.5625 1.25 1.5625 1.25 3 3 C2.71483972 6.0417096 1.73969465 7.39045802 0 10 C-0.20425074 12.11831178 -0.20425074 12.11831178 -0.0625 14.375 C0.01996247 17.74496639 -0.15154177 20.71222436 -1 24 C-1.99 24 -2.98 24 -4 24 C-4.2226746 22.56465159 -4.42761906 21.12654475 -4.625 19.6875 C-4.74101562 18.88699219 -4.85703125 18.08648437 -4.9765625 17.26171875 C-5 15 -5 15 -3 12 C-2.74382982 9.98265985 -2.4900832 7.96459417 -2.28515625 5.94140625 C-1.95159697 3.67046158 -1.21418344 1.9426935 0 0 Z " fill="#97B0A6" transform="translate(138,57)"/>
<path d="M0 0 C0.99 0.33 1.98 0.66 3 1 C2.01 1.495 2.01 1.495 1 2 C1.32441604 3.66842534 1.65939189 5.33480481 2 7 C2.144375 7.7425 2.28875 8.485 2.4375 9.25 C2.623125 9.8275 2.80875 10.405 3 11 C3.66 11.33 4.32 11.66 5 12 C4.34 13.32 3.68 14.64 3 16 C2.01 15.67 1.02 15.34 0 15 C0.33 16.32 0.66 17.64 1 19 C-3 19 -3 19 -6 18 C-5.67 16.68 -5.34 15.36 -5 14 C-4.01 14 -3.02 14 -2 14 C-1.67 12.68 -1.34 11.36 -1 10 C-1 10.66 -1 11.32 -1 12 C-0.01 12 0.98 12 2 12 C1.6390625 11.52949219 1.278125 11.05898437 0.90625 10.57421875 C0.4421875 9.95160156 -0.021875 9.32898438 -0.5 8.6875 C-0.9640625 8.07261719 -1.428125 7.45773438 -1.90625 6.82421875 C-3 5 -3 5 -3 2 C-2.01 1.34 -1.02 0.68 0 0 Z " fill="#6D5D44" transform="translate(180,106)"/>
<path d="M0 0 C0.33 0.99 0.66 1.98 1 3 C2.98 3 4.96 3 7 3 C7.63394697 7.04141194 8.12404452 10.9065307 8 15 C6 13.6875 6 13.6875 4 12 C4 11.01 4 10.02 4 9 C3.34 9 2.68 9 2 9 C1.67 10.32 1.34 11.64 1 13 C0 12 0 12 -0.09765625 9.27734375 C-0.08605469 8.17519531 -0.07445312 7.07304688 -0.0625 5.9375 C-0.05347656 4.83277344 -0.04445312 3.72804688 -0.03515625 2.58984375 C-0.02355469 1.73519531 -0.01195312 0.88054687 0 0 Z " fill="#5C9199" transform="translate(133,93)"/>
<path d="M0 0 C4.41654255 -0.08706286 8.83286457 -0.14041378 13.25 -0.1875 C14.50425781 -0.21263672 15.75851563 -0.23777344 17.05078125 -0.26367188 C18.85869141 -0.27817383 18.85869141 -0.27817383 20.703125 -0.29296875 C22.36843262 -0.31653442 22.36843262 -0.31653442 24.06738281 -0.34057617 C27.29964043 0.0347984 28.63907032 0.82241911 31 3 C30.34 3 29.68 3 29 3 C28.67 3.66 28.34 4.32 28 5 C27.67 4.67 27.34 4.34 27 4 C20.77491724 2.88225906 14.54299189 2.6882559 8.23242188 2.48242188 C2.2169602 2.2169602 2.2169602 2.2169602 0 0 Z " fill="#ED7B35" transform="translate(137,140)"/>
<path d="M0 0 C-1.26422764 2.52845528 -2.52845528 2.76422764 -5 4 C-5.33 4.66 -5.66 5.32 -6 6 C-5.34 6.33 -4.68 6.66 -4 7 C-7.63195496 9.42130331 -9.38349348 9.21022785 -13.6875 9.125 C-14.86699219 9.10695312 -16.04648438 9.08890625 -17.26171875 9.0703125 C-18.16535156 9.04710937 -19.06898438 9.02390625 -20 9 C-20 8.67 -20 8.34 -20 8 C-18.88625 7.896875 -17.7725 7.79375 -16.625 7.6875 C-15.42875 7.460625 -14.2325 7.23375 -13 7 C-10.89767656 4.1315587 -10.89767656 4.1315587 -10 1 C-6.78548731 -0.60725635 -3.56387464 -0.05748185 0 0 Z " fill="#D36126" transform="translate(190,131)"/>
<path d="M0 0 C1.32 0 2.64 0 4 0 C4 1.32 4 2.64 4 4 C5.98 3.01 7.96 2.02 10 1 C9.67 3.64 9.34 6.28 9 9 C10.32 8.34 11.64 7.68 13 7 C13 9.64 13 12.28 13 15 C12.67 13.68 12.34 12.36 12 11 C9.36 10.67 6.72 10.34 4 10 C3.67 7.36 3.34 4.72 3 2 C2.01 2 1.02 2 0 2 C0 1.34 0 0.68 0 0 Z " fill="#E1C4BB" transform="translate(164,34)"/>
<path d="M0 0 C0.66 0.66 1.32 1.32 2 2 C1.67 2.33 1.34 2.66 1 3 C0.76572222 5.01594582 0.58663876 7.038474 0.4375 9.0625 C0.35371094 10.16722656 0.26992187 11.27195312 0.18359375 12.41015625 C0.12300781 13.26480469 0.06242188 14.11945313 0 15 C-0.99 15 -1.98 15 -3 15 C-5.05270806 12.43411493 -6 10.81548818 -6 7.5 C-4.67784046 4.19460115 -2.62371273 2.35461399 0 0 Z " fill="#5D5444" transform="translate(186,102)"/>
<path d="M0 0 C1.134375 0.020625 2.26875 0.04125 3.4375 0.0625 C3.1075 4.0225 2.7775 7.9825 2.4375 12.0625 C0.4375 9.0625 0.4375 9.0625 0.4375 7.0625 C-1.5425 7.0625 -3.5225 7.0625 -5.5625 7.0625 C-4.52245509 0.07934132 -4.52245509 0.07934132 0 0 Z " fill="#518B94" transform="translate(139.5625,88.9375)"/>
<path d="M0 0 C5.75 -0.125 5.75 -0.125 8 1 C9.33857726 1.13844275 10.68280098 1.22503427 12.02734375 1.28125 C13.21553711 1.33732422 13.21553711 1.33732422 14.42773438 1.39453125 C15.25595703 1.42933594 16.08417969 1.46414062 16.9375 1.5 C18.57178464 1.56900029 20.20591575 1.64176558 21.83984375 1.71875 C22.56550537 1.74904297 23.29116699 1.77933594 24.03881836 1.81054688 C26 2 26 2 29 3 C28.67 4.65 28.34 6.3 28 8 C26.68 8 25.36 8 24 8 C23.67 6.35 23.34 4.7 23 3 C21.13794922 3.03480469 21.13794922 3.03480469 19.23828125 3.0703125 C17.5963602 3.08907731 15.95443262 3.10727675 14.3125 3.125 C13.08756836 3.15013672 13.08756836 3.15013672 11.83789062 3.17578125 C7.42907071 3.2114802 4.01268424 3.07580814 0 1 C0 0.67 0 0.34 0 0 Z " fill="#FA944C" transform="translate(131,140)"/>
<path d="M0 0 C4.90258194 0.98051639 6.4989842 1.69904224 10 5 C10 5.66 10 6.32 10 7 C8.88625 7.474375 7.7725 7.94875 6.625 8.4375 C4.73289006 9.25306463 2.84287291 10.07856355 1 11 C0.67 7.37 0.34 3.74 0 0 Z " fill="#384D47" transform="translate(155,89)"/>
<path d="M0 0 C4.75 1.875 4.75 1.875 7 3 C6.67 5.97 6.34 8.94 6 12 C4.68 11.34 3.36 10.68 2 10 C2.66 10 3.32 10 4 10 C4 9.34 4 8.68 4 8 C2.68 8 1.36 8 0 8 C0 7.01 0 6.02 0 5 C-0.185625 4.29875 -0.37125 3.5975 -0.5625 2.875 C-0.706875 2.25625 -0.85125 1.6375 -1 1 C-0.67 0.67 -0.34 0.34 0 0 Z " fill="#353832" transform="translate(181,73)"/>
<path d="M0 0 C3.4027576 -0.38888658 4.82698671 -0.10380798 7.8125 1.6875 C10 4 10 4 10.3125 6.75 C10.1578125 7.86375 10.1578125 7.86375 10 9 C8 10 8 10 6.125 9.5 C2.92572504 7.24168826 1.77046916 4.47770728 0 1 C0 0.67 0 0.34 0 0 Z " fill="#75654A" transform="translate(172,49)"/>
<path d="M0 0 C1.5625 1.125 1.5625 1.125 3 3 C2.6875 6.1875 2.6875 6.1875 2 9 C-0.31 9 -2.62 9 -5 9 C-5.33 7.02 -5.66 5.04 -6 3 C-4.68 3 -3.36 3 -2 3 C-2 2.34 -2 1.68 -2 1 C-1.34 0.67 -0.68 0.34 0 0 Z " fill="#909481" transform="translate(152,123)"/>
<path d="M0 0 C2.31 0 4.62 0 7 0 C7 2.64 7 5.28 7 8 C4.69 8.33 2.38 8.66 0 9 C0 6.03 0 3.06 0 0 Z " fill="#58633D" transform="translate(159,44)"/>
<path d="M0 0 C2.4375 0.8125 2.4375 0.8125 5 2 C5.33 2.99 5.66 3.98 6 5 C5.34 5 4.68 5 4 5 C4.99 6.98 5.98 8.96 7 11 C5.35 11 3.7 11 2 11 C2.33 9.68 2.66 8.36 3 7 C1.02 7 -0.96 7 -3 7 C-2.38722388 4.03824877 -1.74627478 2.61941217 0 0 Z " fill="#1B5F69" transform="translate(173,103)"/>
<path d="M0 0 C1.32 0 2.64 0 4 0 C4 0.99 4 1.98 4 3 C4.66 3.66 5.32 4.32 6 5 C3.37472811 5.05382106 0.75055287 5.09358313 -1.875 5.125 C-2.62136719 5.14175781 -3.36773437 5.15851563 -4.13671875 5.17578125 C-6.09194461 5.1933959 -8.04742021 5.10320189 -10 5 C-10.66 4.34 -11.32 3.68 -12 3 C-9.96600896 0.96600896 -6.0060239 1.50047917 -3.25 1.28125 C-1.03334648 1.23799335 -1.03334648 1.23799335 0 0 Z " fill="#835033" transform="translate(131,126)"/>
<path d="M0 0 C0.33 0 0.66 0 1 0 C1.91657981 5.38490641 2.11138159 10.54230189 2 16 C1.34 16 0.68 16 0 16 C0 16.66 0 17.32 0 18 C-0.66 18 -1.32 18 -2 18 C-2.33 16.68 -2.66 15.36 -3 14 C-2.34 14 -1.68 14 -1 14 C-1.165 13.319375 -1.33 12.63875 -1.5 11.9375 C-2.07713342 8.54684118 -2.19434889 5.43349708 -2 2 C-1.34 1.34 -0.68 0.68 0 0 Z " fill="#D6D1D4" transform="translate(133,77)"/>
<path d="M0 0 C0.33 0 0.66 0 1 0 C1 2.64 1 5.28 1 8 C1.66 8.33 2.32 8.66 3 9 C3 9.66 3 10.32 3 11 C4.98 11 6.96 11 9 11 C9.33 11.99 9.66 12.98 10 14 C8.88625 13.8453125 8.88625 13.8453125 7.75 13.6875 C4.74927133 13.7254586 4.74927133 13.7254586 2.6875 16.5 C1.8521875 17.7375 1.8521875 17.7375 1 19 C0.77213542 16.94921875 0.54427083 14.8984375 0.31640625 12.84765625 C0.18113386 10.98859771 0.18113386 10.98859771 -1 10 C-0.91036938 8.30858344 -0.75422324 6.62040398 -0.5625 4.9375 C-0.46066406 4.01839844 -0.35882813 3.09929687 -0.25390625 2.15234375 C-0.17011719 1.44207031 -0.08632812 0.73179688 0 0 Z " fill="#13626D" transform="translate(168,63)"/>
<path d="M0 0 C-0.33 5.28 -0.66 10.56 -1 16 C-1.99 16 -2.98 16 -4 16 C-3.97679687 15.08476562 -3.95359375 14.16953125 -3.9296875 13.2265625 C-3.91164062 12.03804687 -3.89359375 10.84953125 -3.875 9.625 C-3.84019531 7.84996094 -3.84019531 7.84996094 -3.8046875 6.0390625 C-3.67133771 2.88846183 -3.67133771 2.88846183 -6 1 C-4 0 -4 0 0 0 Z " fill="#C05633" transform="translate(210,136)"/>
<path d="M0 0 C0.33 3.3 0.66 6.6 1 10 C0.01 10.33 -0.98 10.66 -2 11 C-2.66 9.02 -3.32 7.04 -4 5 C-4.99 5.33 -5.98 5.66 -7 6 C-6.67 4.35 -6.34 2.7 -6 1 C-1.125 0 -1.125 0 0 0 Z " fill="#83A4A5" transform="translate(155,102)"/>
<path d="M0 0 C0.66 0.33 1.32 0.66 2 1 C2 1.99 2 2.98 2 4 C2.66 4.33 3.32 4.66 4 5 C3.34 7.31 2.68 9.62 2 12 C0.02 10.68 -1.96 9.36 -4 8 C-3.625 6.0625 -3.625 6.0625 -3 4 C-2.34 3.67 -1.68 3.34 -1 3 C-0.67 2.01 -0.34 1.02 0 0 Z " fill="#213739" transform="translate(161,81)"/>
<path d="M0 0 C0.99 0 1.98 0 3 0 C2.34 1.98 1.68 3.96 1 6 C0.67 5.34 0.34 4.68 0 4 C-1.65 4 -3.3 4 -5 4 C-5.04125 5.258125 -5.0825 6.51625 -5.125 7.8125 C-5.37890625 10.01953125 -5.37890625 10.01953125 -6 12 C-9.0625 14 -9.0625 14 -12 15 C-11.01 12.03 -10.02 9.06 -9 6 C-8.01 6 -7.02 6 -6 6 C-6 5.01 -6 4.02 -6 3 C-4.02 3 -2.04 3 0 3 C0 2.01 0 1.02 0 0 Z " fill="#659473" transform="translate(154,41)"/>
<path d="M0 0 C0.66 0 1.32 0 2 0 C2 0.99 2 1.98 2 3 C5.465 2.505 5.465 2.505 9 2 C9 2.66 9 3.32 9 4 C7.02 4 5.04 4 3 4 C3 4.99 3 5.98 3 7 C2.01 7 1.02 7 0 7 C-0.103125 7.928125 -0.20625 8.85625 -0.3125 9.8125 C-1.0070192 13.03254358 -1.47740939 14.02579865 -4 16 C-3.67 13.69 -3.34 11.38 -3 9 C-2.34 9 -1.68 9 -1 9 C-1.95865509 6.66924071 -1.95865509 6.66924071 -5 5 C-2.03 5.495 -2.03 5.495 1 6 C0.67 4.02 0.34 2.04 0 0 Z " fill="#C2B99E" transform="translate(145,40)"/>
<path d="M0 0 C0.99 0 1.98 0 3 0 C3.38885039 1.78871178 3.76069196 3.58112874 4.125 5.375 C4.33382812 6.37273437 4.54265625 7.37046875 4.7578125 8.3984375 C4.83773437 9.25695312 4.91765625 10.11546875 5 11 C4.34 11.66 3.68 12.32 3 13 C3 11.68 3 10.36 3 9 C1.68 9 0.36 9 -1 9 C-1.09765625 2.84765625 -1.09765625 2.84765625 -1 1 C-0.67 0.67 -0.34 0.34 0 0 Z " fill="#809891" transform="translate(152,89)"/>
<path d="M0 0 C0.99 0.33 1.98 0.66 3 1 C3.83984375 2.703125 3.83984375 2.703125 4 5 C3.00390625 7.796875 3.00390625 7.796875 1.5625 10.75 C1.08941406 11.73484375 0.61632812 12.7196875 0.12890625 13.734375 C-0.24363281 14.48203125 -0.61617187 15.2296875 -1 16 C-1.33 16 -1.66 16 -2 16 C-2.11139091 10.31906353 -1.41620179 5.46249264 0 0 Z " fill="#94B7BD" transform="translate(148,85)"/>
<path d="M0 0 C0.66 0.99 1.32 1.98 2 3 C4.56282742 3.72965366 4.56282742 3.72965366 7 4 C7 4.99 7 5.98 7 7 C7.99 7.33 8.98 7.66 10 8 C9.67 8.99 9.34 9.98 9 11 C6.36 9.68 3.72 8.36 1 7 C0.67 7.99 0.34 8.98 0 10 C-0.66 7.36 -1.32 4.72 -2 2 C-1.34 2 -0.68 2 0 2 C0 1.34 0 0.68 0 0 Z " fill="#758877" transform="translate(178,77)"/>
<path d="M0 0 C0.33 0.66 0.66 1.32 1 2 C1.33 1.34 1.66 0.68 2 0 C2.86625 0.2784375 2.86625 0.2784375 3.75 0.5625 C6.20692525 1.04023546 7.64397534 0.75729364 10 0 C9.01 0.495 9.01 0.495 8 1 C8 1.66 8 2.32 8 3 C7.01 3.495 7.01 3.495 6 4 C7.32 4.66 8.64 5.32 10 6 C6.37 6 2.74 6 -1 6 C-0.67 4.02 -0.34 2.04 0 0 Z " fill="#9F5130" transform="translate(183,125)"/>
<path d="M0 0 C0.99 0 1.98 0 3 0 C3.79953138 3.28696233 4.09658936 4.71023192 3 8 C3.66 8.33 4.32 8.66 5 9 C4.01 9.33 3.02 9.66 2 10 C2 9.01 2 8.02 2 7 C1.01 7 0.02 7 -1 7 C-1 7.99 -1 8.98 -1 10 C-1.66 10 -2.32 10 -3 10 C-2.49287967 6.28111761 -1.88391785 3.26545761 0 0 Z " fill="#9BA275" transform="translate(156,43)"/>
<path d="M0 0 C0.33 0.66 0.66 1.32 1 2 C0.67 2.66 0.34 3.32 0 4 C-0.23798501 7.30975448 -0.38267886 10.61835735 -0.5234375 13.93359375 C-1.02153371 17.13855709 -1.45323658 18.10014173 -4 20 C-3.67 17.36 -3.34 14.72 -3 12 C-3.66 12 -4.32 12 -5 12 C-4.54738642 10.56068883 -4.08767021 9.12361001 -3.625 7.6875 C-3.24214844 6.48673828 -3.24214844 6.48673828 -2.8515625 5.26171875 C-2 3 -2 3 0 0 Z " fill="#5D9193" transform="translate(148,68)"/>
<path d="M0 0 C2 3 2 3 2.3125 5.0625 C2.85260931 7.27238966 2.85260931 7.27238966 5.4375 8.3125 C7.96444412 9.29432364 7.96444412 9.29432364 10 8 C10 9.98 10 11.96 10 14 C9.67 13.01 9.34 12.02 9 11 C7.12612784 10.19787372 7.12612784 10.19787372 4.9375 9.8125 C4.20402344 9.65394531 3.47054687 9.49539062 2.71484375 9.33203125 C2.14894531 9.22246094 1.58304688 9.11289063 1 9 C1 8.34 1 7.68 1 7 C0.01 6.67 -0.98 6.34 -2 6 C-1.34 4.02 -0.68 2.04 0 0 Z " fill="#958469" transform="translate(179,89)"/>
<path d="M0 0 C0.66 0 1.32 0 2 0 C2.33 2.31 2.66 4.62 3 7 C3.66 6.67 4.32 6.34 5 6 C4.6875 7.9375 4.6875 7.9375 4 10 C3.01 10.33 2.02 10.66 1 11 C0.34 10.67 -0.32 10.34 -1 10 C-1.02689216 8.52093108 -1.04634621 7.04172517 -1.0625 5.5625 C-1.07410156 4.73878906 -1.08570313 3.91507812 -1.09765625 3.06640625 C-1 1 -1 1 0 0 Z " fill="#4A685F" transform="translate(156,75)"/>
<path d="M0 0 C0 2.97 0 5.94 0 9 C-1.65 9 -3.3 9 -5 9 C-5 6.33333333 -5 3.66666667 -5 1 C-3 0 -3 0 0 0 Z " fill="#1D2D2B" transform="translate(166,52)"/>
<path d="M0 0 C0 0.66 0 1.32 0 2 C2.64 2.33 5.28 2.66 8 3 C8 4.32 8 5.64 8 7 C7.34 7 6.68 7 6 7 C5.67 6.34 5.34 5.68 5 5 C0.90607154 3.91240913 0.90607154 3.91240913 -3 5 C-3 4.34 -3 3.68 -3 3 C-5.97 2.505 -5.97 2.505 -9 2 C-9 1.67 -9 1.34 -9 1 C-5.846632 0.29925156 -3.27275026 0 0 0 Z " fill="#8A7146" transform="translate(168,42)"/>
<path d="M0 0 C0.66 0 1.32 0 2 0 C2.16357982 4.90739471 2.20635371 7.62939857 0 12 C-0.34931127 14.36182053 -0.50034164 16.6927185 -0.65625 19.07421875 C-0.7696875 19.70972656 -0.883125 20.34523438 -1 21 C-1.66 21.33 -2.32 21.66 -3 22 C-3.08142927 20.2507786 -3.13938541 18.50045458 -3.1875 16.75 C-3.22230469 15.77546875 -3.25710937 14.8009375 -3.29296875 13.796875 C-2.956156 10.58143598 -1.970085 9.47442676 0 7 C-0.31506627 3.85778033 -0.31506627 3.85778033 -1 1 C-0.67 0.67 -0.34 0.34 0 0 Z " fill="#5B9589" transform="translate(140,56)"/>
<path d="M0 0 C4.95 0.99 4.95 0.99 10 2 C10.33 2.99 10.66 3.98 11 5 C9.68 5.99 8.36 6.98 7 8 C5.83035398 6.8572081 4.66435444 5.71068285 3.5 4.5625 C2.8503125 3.92441406 2.200625 3.28632812 1.53125 2.62890625 C0 1 0 1 0 0 Z " fill="#1F2F2F" transform="translate(156,116)"/>
<path d="M0 0 C0.99 0.66 1.98 1.32 3 2 C2.01 2 1.02 2 0 2 C1.19899698 5.0831351 2.47700477 8.06279492 4 11 C2.35 11.33 0.7 11.66 -1 12 C-1.22162329 10.37675914 -1.42689803 8.751279 -1.625 7.125 C-1.74101562 6.22007813 -1.85703125 5.31515625 -1.9765625 4.3828125 C-1.98429688 3.59648438 -1.99203125 2.81015625 -2 2 C-1.34 1.34 -0.68 0.68 0 0 Z " fill="#2E4B4C" transform="translate(157,100)"/>
<path d="M0 0 C0.66 0 1.32 0 2 0 C1.67 2.97 1.34 5.94 1 9 C-0.32 9 -1.64 9 -3 9 C-3.33 7.35 -3.66 5.7 -4 4 C-2.68 3.34 -1.36 2.68 0 2 C0 1.34 0 0.68 0 0 Z " fill="#0A5440" transform="translate(149,51)"/>
<path d="M0 0 C2.12046792 3.53411321 2.53199289 6.94393835 3 11 C-0.55780196 10.39009109 -3.6828589 9.4216319 -7 8 C-4 7 -4 7 -1 8 C-0.67 5.36 -0.34 2.72 0 0 Z " fill="#31585A" transform="translate(167,95)"/>
<path d="M0 0 C0.66 0 1.32 0 2 0 C2 1.65 2 3.3 2 5 C3.32 4.67 4.64 4.34 6 4 C6 4.66 6 5.32 6 6 C1.545 7.485 1.545 7.485 -3 9 C-2.01 6.03 -1.02 3.06 0 0 Z " fill="#E5CBC3" transform="translate(152,34)"/>
<path d="M0 0 C1.32 0.33 2.64 0.66 4 1 C3.6875 3.875 3.6875 3.875 3 7 C2.01 7.66 1.02 8.32 0 9 C-1.5625 6.625 -1.5625 6.625 -3 4 C-2.67 3.34 -2.34 2.68 -2 2 C-1.34 2.33 -0.68 2.66 0 3 C0 2.01 0 1.02 0 0 Z " fill="#31302A" transform="translate(180,121)"/>
<path d="M0 0 C0.99 0.33 1.98 0.66 3 1 C2.01 1.495 2.01 1.495 1 2 C1.32441604 3.66842534 1.65939189 5.33480481 2 7 C2.144375 7.7425 2.28875 8.485 2.4375 9.25 C2.623125 9.8275 2.80875 10.405 3 11 C3.66 11.33 4.32 11.66 5 12 C4.34 13.32 3.68 14.64 3 16 C2.566875 14.9275 2.13375 13.855 1.6875 12.75 C0.71311773 10.44860188 -0.17245735 8.77005686 -1.6875 6.75 C-3 5 -3 5 -3 2 C-2.01 1.34 -1.02 0.68 0 0 Z " fill="#97876F" transform="translate(180,106)"/>
<path d="M0 0 C1.98 0.99 3.96 1.98 6 3 C6 3.99 6 4.98 6 6 C4.02 6.33 2.04 6.66 0 7 C-1.04449911 3.86650268 -0.93423645 3.01031744 0 0 Z " fill="#2F322C" transform="translate(181,84)"/>
<path d="M0 0 C0.99 0 1.98 0 3 0 C3.33 1.98 3.66 3.96 4 6 C1.36 6.33 -1.28 6.66 -4 7 C-4 5.35 -4 3.7 -4 2 C-3.67 2.66 -3.34 3.32 -3 4 C-2.34 3.67 -1.68 3.34 -1 3 C-0.67 2.01 -0.34 1.02 0 0 Z " fill="#DEAF88" transform="translate(164,36)"/>
<path d="M0 0 C0.33 0 0.66 0 1 0 C2.20568053 4.67201205 2.09382426 9.21496292 2 14 C-0.97 13.505 -0.97 13.505 -4 13 C-4 12.67 -4 12.34 -4 12 C-2.35 12 -0.7 12 1 12 C1 11.34 1 10.68 1 10 C0.34 9.67 -0.32 9.34 -1 9 C-0.67 8.34 -0.34 7.68 0 7 C-0.66 6.67 -1.32 6.34 -2 6 C-1.34 6 -0.68 6 0 6 C-0.2784375 4.7934375 -0.2784375 4.7934375 -0.5625 3.5625 C-0.706875 2.716875 -0.85125 1.87125 -1 1 C-0.67 0.67 -0.34 0.34 0 0 Z " fill="#E6D9D9" transform="translate(133,105)"/>
<path d="M0 0 C0.66 0.33 1.32 0.66 2 1 C2 2.32 2 3.64 2 5 C3.32 5.33 4.64 5.66 6 6 C6 6.33 6 6.66 6 7 C3.36 7 0.72 7 -2 7 C-2.125 4.625 -2.125 4.625 -2 2 C-1.34 1.34 -0.68 0.68 0 0 Z " fill="#576256" transform="translate(141,125)"/>
<path d="M0 0 C4.67692308 1.47692308 4.67692308 1.47692308 6.3125 4.125 C6.539375 4.74375 6.76625 5.3625 7 6 C6.01 6 5.02 6 4 6 C3.67 5.67 3.34 5.34 3 5 C2.67 5.66 2.34 6.32 2 7 C1.34 7 0.68 7 0 7 C-0.38133299 5.0085944 -0.71325582 3.00720923 -1 1 C-0.67 0.67 -0.34 0.34 0 0 Z " fill="#2D322D" transform="translate(176,113)"/>
<path d="M0 0 C0 1.32 0 2.64 0 4 C-4.455 3.01 -4.455 3.01 -9 2 C-9 1.34 -9 0.68 -9 0 C-5.93109813 -1.53445094 -3.29905734 -0.54984289 0 0 Z " fill="#203334" transform="translate(167,113)"/>
<path d="M0 0 C1.80125336 2.70188004 3.00243753 4.93057703 4 8 C3.67 8.99 3.34 9.98 3 11 C2.01 11.33 1.02 11.66 0 12 C-0.38897161 10.37828761 -0.76078298 8.75245075 -1.125 7.125 C-1.43824219 5.76761719 -1.43824219 5.76761719 -1.7578125 4.3828125 C-1.83773437 3.59648438 -1.91765625 2.81015625 -2 2 C-1.34 1.34 -0.68 0.68 0 0 Z " fill="#0A5362" transform="translate(169,92)"/>
<path d="M0 0 C0.66 0.33 1.32 0.66 2 1 C1.67 2.32 1.34 3.64 1 5 C1.66 5.33 2.32 5.66 3 6 C3.625 8.5625 3.625 8.5625 4 11 C3.34 11 2.68 11 2 11 C2 10.34 2 9.68 2 9 C0.35 9.33 -1.3 9.66 -3 10 C-3 8.68 -3 7.36 -3 6 C-2.34 5.67 -1.68 5.34 -1 5 C-0.34444881 2.47266765 -0.34444881 2.47266765 0 0 Z " fill="#94A58E" transform="translate(154,64)"/>
<path d="M0 0 C0 2.97 0 5.94 0 9 C-0.99 9 -1.98 9 -3 9 C-3 7.35 -3 5.7 -3 4 C-4.32 4.33 -5.64 4.66 -7 5 C-2.22727273 0 -2.22727273 0 0 0 Z " fill="#789896" transform="translate(144,112)"/>
<path d="M0 0 C2.475 0.99 2.475 0.99 5 2 C5 3.32 5 4.64 5 6 C3.35 6 1.7 6 0 6 C-0.66 4.68 -1.32 3.36 -2 2 C-1.34 1.34 -0.68 0.68 0 0 Z " fill="#A9AD9C" transform="translate(152,83)"/>
<path d="M0 0 C2.375 0.25 2.375 0.25 5 1 C6.3125 3.0625 6.3125 3.0625 7 5 C2.25 6.125 2.25 6.125 0 5 C0 3.35 0 1.7 0 0 Z " fill="#39392F" transform="translate(178,60)"/>
<path d="M0 0 C0.66 0 1.32 0 2 0 C3.31626692 3.61973402 4 6.09567131 4 10 C3.01 10.33 2.02 10.66 1 11 C-0.17571451 7.32589215 -0.07366746 3.83070817 0 0 Z " fill="#7E8757" transform="translate(156,53)"/>
<path d="M0 0 C0.66 0.33 1.32 0.66 2 1 C1.01 1.33 0.02 1.66 -1 2 C-1 3.98 -1 5.96 -1 8 C0.65 8.33 2.3 8.66 4 9 C3.01 9.495 3.01 9.495 2 10 C2 11.65 2 13.3 2 15 C1.731875 14.443125 1.46375 13.88625 1.1875 13.3125 C0.02090786 10.91668533 0.02090786 10.91668533 -1.6875 8.5625 C-3 6 -3 6 -2.8125 3.25 C-2 1 -2 1 0 0 Z " fill="#F8CDAF" transform="translate(113,127)"/>
<path d="M0 0 C0.66 0.33 1.32 0.66 2 1 C2.40729228 3.32156597 2.74438677 5.6568787 3 8 C1.68 8.33 0.36 8.66 -1 9 C-1.33 7.35 -1.66 5.7 -2 4 C-1.34 4 -0.68 4 0 4 C0 2.68 0 1.36 0 0 Z " fill="#34857C" transform="translate(171,54)"/>
<path d="M0 0 C0.66 0 1.32 0 2 0 C2 0.99 2 1.98 2 3 C2.66 3 3.32 3 4 3 C4 4.32 4 5.64 4 7 C2.35 7.33 0.7 7.66 -1 8 C-0.67 5.36 -0.34 2.72 0 0 Z " fill="#56898F" transform="translate(135,102)"/>
<path d="M0 0 C2.125 2 2.125 2 4 5 C3.75256577 7.91004167 2.94868985 10.20136493 2 13 C1.34 12.67 0.68 12.34 0 12 C0 8.04 0 4.08 0 0 Z " fill="#96AFB0" transform="translate(133,93)"/>
<path d="M0 0 C1.5 1.375 1.5 1.375 3 3 C3 3.66 3 4.32 3 5 C3.66 5 4.32 5 5 5 C4.67 6.32 4.34 7.64 4 9 C2.68 8.67 1.36 8.34 0 8 C-0.79953138 4.71303767 -1.09658936 3.28976808 0 0 Z " fill="#2F7E86" transform="translate(140,75)"/>
<path d="M0 0 C1.98 0.99 3.96 1.98 6 3 C6 4.32 6 5.64 6 7 C2.20411134 6.45773019 0.52788007 4.79872437 -2 2 C-1.34 2 -0.68 2 0 2 C0 1.34 0 0.68 0 0 Z " fill="#88896B" transform="translate(175,64)"/>
<path d="M0 0 C2.95183101 2.95183101 3.08663988 5.95511947 4 10 C1.525 9.01 1.525 9.01 -1 8 C-1.04241723 5.66705225 -1.04092937 3.33297433 -1 1 C-0.67 0.67 -0.34 0.34 0 0 Z " fill="#556D66" transform="translate(154,117)"/>
<path d="M0 0 C0.99 0 1.98 0 3 0 C3 0.99 3 1.98 3 3 C2.34 3 1.68 3 1 3 C1.33 6.63 1.66 10.26 2 14 C1.01 14 0.02 14 -1 14 C-0.67 9.38 -0.34 4.76 0 0 Z " fill="#CBC09E" transform="translate(155,50)"/>
<path d="M0 0 C1.98 0 3.96 0 6 0 C5.67 1.65 5.34 3.3 5 5 C3.68 5 2.36 5 1 5 C0.67 3.35 0.34 1.7 0 0 Z " fill="#F79857" transform="translate(154,143)"/>
<path d="M0 0 C0.33 0 0.66 0 1 0 C1 3.63 1 7.26 1 11 C0.01 11.495 0.01 11.495 -1 12 C-1.2226746 10.56465159 -1.42761906 9.12654475 -1.625 7.6875 C-1.74101562 6.88699219 -1.85703125 6.08648437 -1.9765625 5.26171875 C-2 3 -2 3 0 0 Z " fill="#B2BEB9" transform="translate(135,69)"/>
<path d="M0 0 C3 0 3 0 5.1875 1.875 C7 4 7 4 7 6 C5.02 6 3.04 6 1 6 C0.67 4.02 0.34 2.04 0 0 Z " fill="#544735" transform="translate(175,125)"/>
<path d="M0 0 C1.0625 1.8125 1.0625 1.8125 2 4 C1.67 4.99 1.34 5.98 1 7 C-0.65 7.33 -2.3 7.66 -4 8 C-2.25 2.25 -2.25 2.25 0 0 Z " fill="#294648" transform="translate(174,114)"/>
<path d="M0 0 C0.66 0 1.32 0 2 0 C1.32823171 3.80668696 0.39463134 7.39036593 -1 11 C-1.99 11.495 -1.99 11.495 -3 12 C-3.34833144 7.12335991 -2.41685712 4.22949995 0 0 Z " fill="#4C5E54" transform="translate(179,84)"/>
<path d="M0 0 C2 3 2 3 2 6 C1.36485174 8.34210921 0.7013284 10.67684969 0 13 C-0.33 13 -0.66 13 -1 13 C-1.02696365 11.20841511 -1.04637917 9.41671527 -1.0625 7.625 C-1.07410156 6.62726563 -1.08570313 5.62953125 -1.09765625 4.6015625 C-1 2 -1 2 0 0 Z " fill="#86A8A8" transform="translate(148,70)"/>
<path d="M0 0 C2 3 2 3 2.5 5.625 C2.665 6.40875 2.83 7.1925 3 8 C3.66 8.33 4.32 8.66 5 9 C4.34 9 3.68 9 3 9 C2.67 9.66 2.34 10.32 2 11 C-1.07692308 5.70769231 -1.07692308 5.70769231 -0.6875 2.125 C-0.460625 1.42375 -0.23375 0.7225 0 0 Z " fill="#547156" transform="translate(156,64)"/>
<path d="M0 0 C0.33 0 0.66 0 1 0 C1.04898438 0.81984375 1.09796875 1.6396875 1.1484375 2.484375 C1.22320312 3.56203125 1.29796875 4.6396875 1.375 5.75 C1.44460937 6.81734375 1.51421875 7.8846875 1.5859375 8.984375 C1.9728223 11.80206432 2.55686166 13.5830366 4 16 C2.0625 15.6875 2.0625 15.6875 0 15 C-1.14229879 11.57310364 -0.90861076 9.38897782 -0.5625 5.8125 C-0.46066406 4.72582031 -0.35882813 3.63914062 -0.25390625 2.51953125 C-0.17011719 1.68808594 -0.08632812 0.85664062 0 0 Z " fill="#D9C6CA" transform="translate(186,105)"/>
<path d="M0 0 C0.66 0 1.32 0 2 0 C1.67 5.28 1.34 10.56 1 16 C0.67 16 0.34 16 0 16 C-0.19389096 13.5211787 -0.38040123 11.04219069 -0.5625 8.5625 C-0.61857422 7.85544922 -0.67464844 7.14839844 -0.73242188 6.41992188 C-0.86190993 4.61572163 -0.93521608 2.80768048 -1 1 C-0.67 0.67 -0.34 0.34 0 0 Z " fill="#CC7153" transform="translate(208,136)"/>
<path d="M0 0 C2.3431213 0.25561323 4.67843403 0.59270772 7 1 C7.33 1.66 7.66 2.32 8 3 C5.69 3.33 3.38 3.66 1 4 C0.67 2.68 0.34 1.36 0 0 Z " fill="#E39D7D" transform="translate(205,125)"/>
<path d="M0 0 C0.33 0 0.66 0 1 0 C1.125 2.375 1.125 2.375 1 5 C0.34 5.66 -0.32 6.32 -1 7 C-3.625 6.625 -3.625 6.625 -6 6 C-5.360625 5.731875 -4.72125 5.46375 -4.0625 5.1875 C-1.66868314 4.11332248 -1.66868314 4.11332248 -1 1 C-0.67 0.67 -0.34 0.34 0 0 Z " fill="#71989B" transform="translate(141,105)"/>
<path d="M0 0 C0.99 0.99 1.98 1.98 3 3 C2.01 3.495 2.01 3.495 1 4 C1.99 5.98 2.98 7.96 4 10 C2.35 10 0.7 10 -1 10 C-0.67 6.7 -0.34 3.4 0 0 Z " fill="#4F675F" transform="translate(176,104)"/>
<path d="M0 0 C2.475 0.99 2.475 0.99 5 2 C4.67 2.99 4.34 3.98 4 5 C1.9375 5.6875 1.9375 5.6875 0 6 C-0.38218767 4.34385343 -0.71395102 2.67542976 -1 1 C-0.67 0.67 -0.34 0.34 0 0 Z " fill="#2B2F2B" transform="translate(183,98)"/>
<path d="M0 0 C2.64 0 5.28 0 8 0 C7.67 1.32 7.34 2.64 7 4 C4.03 3.505 4.03 3.505 1 3 C0.67 2.01 0.34 1.02 0 0 Z " fill="#AEB8AB" transform="translate(148,73)"/>
<path d="M0 0 C2.0625 1.75 2.0625 1.75 4 4 C3.75 6.25 3.75 6.25 3 8 C1.68 8 0.36 8 -1 8 C-0.67 5.36 -0.34 2.72 0 0 Z " fill="#47453A" transform="translate(155,124)"/>
<path d="M0 0 C1.98 1.65 3.96 3.3 6 5 C5.01 5.99 4.02 6.98 3 8 C0.4345406 5.4345406 0.45953913 3.52313332 0 0 Z " fill="#263433" transform="translate(156,119)"/>
<path d="M0 0 C0.33 0 0.66 0 1 0 C1.33 3.3 1.66 6.6 2 10 C1.01 10.495 1.01 10.495 0 11 C0 9.35 0 7.7 0 6 C-0.66 6 -1.32 6 -2 6 C-2 5.01 -2 4.02 -2 3 C-1.34 3 -0.68 3 0 3 C0 2.01 0 1.02 0 0 Z " fill="#5E8483" transform="translate(154,102)"/>
<path d="M0 0 C0.99 0 1.98 0 3 0 C5.09230769 4.43076923 5.09230769 4.43076923 4.625 7.3125 C4.41875 7.869375 4.2125 8.42625 4 9 C3.34 9 2.68 9 2 9 C1.34 6.03 0.68 3.06 0 0 Z " fill="#92A9A4" transform="translate(144,116)"/>
<path d="M0 0 C3 1 3 1 4.25 3.4375 C5 6 5 6 4 8 C3.34 8 2.68 8 2 8 C0.74335022 5.09399739 0 3.20395416 0 0 Z " fill="#1E3E38" transform="translate(157,64)"/>
<path d="M0 0 C0.99 0 1.98 0 3 0 C3 1.98 3 3.96 3 6 C2.01 6 1.02 6 0 6 C-0.38218767 4.34385343 -0.71395102 2.67542976 -1 1 C-0.67 0.67 -0.34 0.34 0 0 Z " fill="#3F3E34" transform="translate(183,111)"/>
<path d="M0 0 C1.32 0.33 2.64 0.66 4 1 C3.01 1.33 2.02 1.66 1 2 C1.99 3.32 2.98 4.64 4 6 C2.02 6.66 0.04 7.32 -2 8 C-1.34 5.36 -0.68 2.72 0 0 Z " fill="#E4D0D3" transform="translate(189,97)"/>
<path d="M0 0 C0.33 0 0.66 0 1 0 C1.125 2.375 1.125 2.375 1 5 C-1 7 -1 7 -3.625 7.125 C-4.40875 7.08375 -5.1925 7.0425 -6 7 C-5.67 6.34 -5.34 5.68 -5 5 C-4.01 5.33 -3.02 5.66 -2 6 C-1.855625 5.195625 -1.71125 4.39125 -1.5625 3.5625 C-1 1 -1 1 0 0 Z " fill="#14626F" transform="translate(177,84)"/>
<path d="M0 0 C1.32 0 2.64 0 4 0 C4 0.99 4 1.98 4 3 C4.99 3.33 5.98 3.66 7 4 C6.67 4.99 6.34 5.98 6 7 C3 5.1875 3 5.1875 0 3 C0 2.01 0 1.02 0 0 Z " fill="#716551" transform="translate(181,81)"/>
<path d="M0 0 C0.61875 0.66 1.2375 1.32 1.875 2 C3.75637427 4.2284549 3.75637427 4.2284549 6 4 C5.67 5.32 5.34 6.64 5 8 C4.01 7.67 3.02 7.34 2 7 C0.8125 3.4375 0.8125 3.4375 0 0 Z " fill="#25766F" transform="translate(139,70)"/>
<path d="M0 0 C2 4 2 4 1.125 7.75 C0.75375 8.8225 0.3825 9.895 0 11 C-0.66 11 -1.32 11 -2 11 C-1.34 7.37 -0.68 3.74 0 0 Z " fill="#80AEA8" transform="translate(152,55)"/>
<path d="M0 0 C2.0625 0.4375 2.0625 0.4375 4 1 C4 1.66 4 2.32 4 3 C2.68 3 1.36 3 0 3 C0 3.66 0 4.32 0 5 C-0.99 5 -1.98 5 -3 5 C-1.125 1.125 -1.125 1.125 0 0 Z " fill="#90A07B" transform="translate(170,46)"/>
<path d="M0 0 C0.66 0.33 1.32 0.66 2 1 C2 3.64 2 6.28 2 9 C1.01 9 0.02 9 -1 9 C-0.67 6.03 -0.34 3.06 0 0 Z " fill="#F1DBDE" transform="translate(155,30)"/>
<path d="M0 0 C3.3 0.33 6.6 0.66 10 1 C10 1.99 10 2.98 10 4 C9.67 3.34 9.34 2.68 9 2 C4.545 2.495 4.545 2.495 0 3 C0 2.01 0 1.02 0 0 Z " fill="#A85230" transform="translate(194,125)"/>
<path d="M0 0 C0.33 0.99 0.66 1.98 1 3 C-0.4375 5.6875 -0.4375 5.6875 -2 8 C-2.66 7.67 -3.32 7.34 -4 7 C-3.814375 6.38125 -3.62875 5.7625 -3.4375 5.125 C-2.76313824 2.95839822 -2.76313824 2.95839822 -4 1 C-2 0 -2 0 0 0 Z " fill="#98B1AF" transform="translate(151,116)"/>
<path d="M0 0 C0.66 0 1.32 0 2 0 C2 0.66 2 1.32 2 2 C2.99 2.33 3.98 2.66 5 3 C4.67 4.32 4.34 5.64 4 7 C3.34 7 2.68 7 2 7 C0.5393715 4.35261084 0 3.10551666 0 0 Z " fill="#554C3B" transform="translate(178,96)"/>
<path d="M0 0 C0.66 0 1.32 0 2 0 C4.1519437 3.22791555 4.20086443 4.28400809 4 8 C2 6.8125 2 6.8125 0 5 C-0.25 2.3125 -0.25 2.3125 0 0 Z " fill="#638E91" transform="translate(137,100)"/>
<path d="M0 0 C0.99 0 1.98 0 3 0 C3 0.99 3 1.98 3 3 C3.99 3.33 4.98 3.66 6 4 C5.67 4.66 5.34 5.32 5 6 C3.0625 5.25 3.0625 5.25 1 4 C0.25 1.875 0.25 1.875 0 0 Z " fill="#384230" transform="translate(173,50)"/>
<path d="M0 0 C0.99 0 1.98 0 3 0 C2.34 1.98 1.68 3.96 1 6 C0.67 5.34 0.34 4.68 0 4 C-1.98 4.33 -3.96 4.66 -6 5 C-6 4.34 -6 3.68 -6 3 C-4.02 3 -2.04 3 0 3 C0 2.01 0 1.02 0 0 Z " fill="#7B8A53" transform="translate(154,41)"/>
<path d="M0 0 C0.99 0.33 1.98 0.66 3 1 C3.33 1.99 3.66 2.98 4 4 C1.36 4 -1.28 4 -4 4 C-2.68 3.34 -1.36 2.68 0 2 C0 1.34 0 0.68 0 0 Z " fill="#7A3B23" transform="translate(191,126)"/>
<path d="M0 0 C1.485 0.99 1.485 0.99 3 2 C2.67 3.98 2.34 5.96 2 8 C1.34 8 0.68 8 0 8 C0 5.36 0 2.72 0 0 Z " fill="#A0B7B4" transform="translate(135,111)"/>
<path d="M0 0 C1.65 0 3.3 0 5 0 C4.67 1.32 4.34 2.64 4 4 C2.68 3.67 1.36 3.34 0 3 C0 2.01 0 1.02 0 0 Z " fill="#086455" transform="translate(145,62)"/>
<path d="M0 0 C3.4375 0.8125 3.4375 0.8125 7 2 C7.33 2.99 7.66 3.98 8 5 C7.01 5.495 7.01 5.495 6 6 C6 5.34 6 4.68 6 4 C3.03 3.505 3.03 3.505 0 3 C0 2.01 0 1.02 0 0 Z " fill="#AA9371" transform="translate(175,56)"/>
<path d="M0 0 C0.66 0.33 1.32 0.66 2 1 C1.34 2.32 0.68 3.64 0 5 C-0.66 5 -1.32 5 -2 5 C-2 6.98 -2 8.96 -2 11 C-2.33 11 -2.66 11 -3 11 C-3.36923077 3.49230769 -3.36923077 3.49230769 -1.5 1 C-1.005 0.67 -0.51 0.34 0 0 Z " fill="#297F72" transform="translate(145,53)"/>
<path d="M0 0 C0.66 0 1.32 0 2 0 C1.625 2.9375 1.625 2.9375 1 6 C0.01 6.495 0.01 6.495 -1 7 C-1.625 4.625 -1.625 4.625 -2 2 C-1.34 1.34 -0.68 0.68 0 0 Z " fill="#066454" transform="translate(147,53)"/>
<path d="M0 0 C-0.375 1.9375 -0.375 1.9375 -1 4 C-1.99 4.495 -1.99 4.495 -3 5 C-3 4.34 -3 3.68 -3 3 C-5.97 2.505 -5.97 2.505 -9 2 C-9 1.67 -9 1.34 -9 1 C-5.846632 0.29925156 -3.27275026 0 0 0 Z " fill="#718051" transform="translate(168,42)"/>
<path d="M0 0 C0.66 0 1.32 0 2 0 C2.33 1.98 2.66 3.96 3 6 C2.01 6 1.02 6 0 6 C-1.125 2.25 -1.125 2.25 0 0 Z " fill="#8BB0B7" transform="translate(149,107)"/>
<path d="M0 0 C0.99 0.33 1.98 0.66 3 1 C2.67 1.99 2.34 2.98 2 4 C1.01 3.67 0.02 3.34 -1 3 C-1 3.66 -1 4.32 -1 5 C-1.66 5 -2.32 5 -3 5 C-2.625 3.0625 -2.625 3.0625 -2 1 C-1.34 0.67 -0.68 0.34 0 0 Z " fill="#4A8187" transform="translate(137,91)"/>
<path d="M0 0 C1.65 0.33 3.3 0.66 5 1 C4.67 1.99 4.34 2.98 4 4 C3.67 3.67 3.34 3.34 3 3 C0.94603274 3.40929986 0.94603274 3.40929986 -1 4 C-0.67 2.68 -0.34 1.36 0 0 Z " fill="#418C9C" transform="translate(139,82)"/>
<path d="M0 0 C0.99 0 1.98 0 3 0 C3 0.66 3 1.32 3 2 C3.66 2 4.32 2 5 2 C4.67 2.99 4.34 3.98 4 5 C3.01 4.67 2.02 4.34 1 4 C0.3125 1.9375 0.3125 1.9375 0 0 Z " fill="#293E31" transform="translate(161,45)"/>
</svg>
